<?xml version="1.0" encoding="UTF-8"?>
<svg version="1.1" xmlns="http://www.w3.org/2000/svg" width="578" height="443">
<path d="M0 0 C1.48113281 1.17175781 1.48113281 1.17175781 2.9921875 2.3671875 C8.89737533 7.07030147 8.89737533 7.07030147 11 9 C11 9.66 11 10.32 11 11 C11.639375 11.268125 12.27875 11.53625 12.9375 11.8125 C15 13 15 13 16 16 C16.57492187 16.27457031 17.14984375 16.54914062 17.7421875 16.83203125 C20.91450701 18.47307543 22.88217379 20.98204594 25.125 23.6875 C25.60437012 24.26274414 26.08374023 24.83798828 26.57763672 25.43066406 C52 56.51265902 52 56.51265902 52 71 C32.4236647 76.99057255 32.4236647 76.99057255 25 75 C22.49064173 72.66004988 21.11551625 70.22980868 20 67 C20 66.34 20 65.68 20 65 C15.90632667 65.50824387 14.31115732 67.51011004 11.6875 70.5625 C10.89988281 71.46871094 10.11226563 72.37492187 9.30078125 73.30859375 C8.54152344 74.19675781 7.78226562 75.08492188 7 76 C5.7930289 77.37619592 4.58482688 78.75131395 3.375 80.125 C2.818125 80.764375 2.26125 81.40375 1.6875 82.0625 C-0.65591626 84.75308904 -3.01407212 87.43070165 -5.37109375 90.109375 C-6.85592459 91.83277578 -8.27357181 93.59353696 -9.6875 95.375 C-12 98 -12 98 -14.0625 99 C-16.34302262 99.97534131 -16.34302262 99.97534131 -18 103.0625 C-20 106 -20 106 -22.25 106.875 C-22.8275 106.91625 -23.405 106.9575 -24 107 C-24 107.66 -24 108.32 -24 109 C-24.66 109 -25.32 109 -26 109 C-26 109.66 -26 110.32 -26 111 C-27.53195272 112.37212301 -29.12921081 113.6715446 -30.75 114.9375 C-35.00406143 118.32984129 -39.0397775 121.83420285 -43 125.5625 C-47.54637176 129.81043571 -52.29629586 133.56576056 -57.3828125 137.1484375 C-62.1043895 140.48877705 -66.90384282 143.90384282 -71 148 C-72.27760908 148.713284 -73.57201962 149.39669135 -74.875 150.0625 C-78.64805229 152.11618669 -81.98106367 154.43124599 -85.375 157.0625 C-90.77524253 161.20361862 -96.37654109 164.9215937 -102.125 168.5625 C-102.96724121 169.0994751 -103.80948242 169.6364502 -104.67724609 170.18969727 C-105.46695801 170.68526123 -106.25666992 171.1808252 -107.0703125 171.69140625 C-107.77945801 172.13685791 -108.48860352 172.58230957 -109.21923828 173.04125977 C-111 174 -111 174 -113 174 C-113.33 174.66 -113.66 175.32 -114 176 C-116.1689438 177.25443768 -118.33403446 178.42296903 -120.5625 179.5625 C-125.29858314 182.02713868 -129.98559823 184.54066877 -134.60498047 187.21801758 C-158.74982879 201.16305172 -184.91704933 212.23971322 -211 222 C-203.8358016 232.31082672 -195.262838 239.86446456 -185 247 C-184.23300781 247.58523438 -183.46601563 248.17046875 -182.67578125 248.7734375 C-155.63319014 269.06685901 -118.06776487 275.11742148 -85.1875 271.3125 C-65.77955512 268.17520679 -46.43018322 261.99963363 -30 251 C-29.03964844 250.39542969 -28.07929688 249.79085938 -27.08984375 249.16796875 C-18.10628846 243.40986189 -10.42725755 236.63946491 -3 229 C-2.21625 228.236875 -1.4325 227.47375 -0.625 226.6875 C0.674375 225.3571875 0.674375 225.3571875 2 224 C2.48984375 223.51789063 2.9796875 223.03578125 3.484375 222.5390625 C27.00394245 197.7875177 37.1063131 159.56862823 36.296875 126.28515625 C35.9077016 117.43475956 34.48154083 108.72194428 33 100 C32.78397698 98.6720663 32.5690238 97.34395783 32.35546875 96.015625 C31.91906565 93.34069378 31.46974118 90.66923515 31 88 C32.74906531 87.35163958 34.49929219 86.70641216 36.25 86.0625 C37.22453125 85.70285156 38.1990625 85.34320313 39.203125 84.97265625 C43.22787526 83.57298751 46.79317269 82.7924246 51.0625 82.625 C51.91972656 82.57601562 52.77695312 82.52703125 53.66015625 82.4765625 C56 83 56 83 57.7109375 85.16015625 C71.65910723 115.88839684 65.49556815 160.2790337 54.25 191 C45.39212709 214.2601287 31.85678135 234.63924035 14 252 C13.22914063 252.7734375 12.45828125 253.546875 11.6640625 254.34375 C-0.19589744 266.16892999 -13.0045357 275.49147975 -28 283 C-28.96808594 283.48984375 -29.93617188 283.9796875 -30.93359375 284.484375 C-70.12872313 303.47028037 -116.3177048 306.23359003 -157.6015625 292.50390625 C-169.12246559 288.49884633 -180.07395599 283.39572834 -191 278 C-191 277.34 -191 276.68 -191 276 C-192.29744141 275.65775391 -192.29744141 275.65775391 -193.62109375 275.30859375 C-197.42491498 273.83543755 -200.06727315 271.74081252 -203.0625 269.0625 C-207.10174902 265.50415923 -207.10174902 265.50415923 -211.55859375 262.49609375 C-214.5117871 260.68637686 -216.61130957 258.50136451 -219 256 C-219.77859375 255.24460937 -220.5571875 254.48921875 -221.359375 253.7109375 C-227.39000763 247.81826052 -232.79199443 241.62574042 -238 235 C-238.67546875 234.14535156 -239.3509375 233.29070312 -240.046875 232.41015625 C-247.03895861 223.49669429 -247.03895861 223.49669429 -246.74487305 219.74731445 C-243.76124135 204.73723158 -243.76124135 204.73723158 -238.25628662 200.73101807 C-233.01673974 197.88213532 -227.34065485 196.14528804 -221.6875 194.3125 C-219.91572739 193.69356752 -218.14611135 193.06842839 -216.37866211 192.43725586 C-213.73149989 191.49262517 -211.08376226 190.55154413 -208.42854309 189.629776 C-201.14696012 187.10089732 -194.09437612 184.22748539 -187.0625 181.0625 C-186.06371826 180.61479248 -185.06493652 180.16708496 -184.03588867 179.70581055 C-176.68647945 176.37458584 -169.42793062 172.89144266 -162.26806641 169.17089844 C-159.56633394 167.77611815 -156.8512987 166.40866594 -154.13671875 165.0390625 C-138.43874863 157.06382998 -123.69748347 148.15288618 -109.07128906 138.3815918 C-107.34556371 137.230498 -105.61480639 136.08695259 -103.8828125 134.9453125 C-87.43986676 124.0920367 -71.2055451 112.36087817 -56.96875 98.6953125 C-55 97 -55 97 -53 97 C-53 96.34 -53 95.68 -53 95 C-49.53846154 92 -49.53846154 92 -47 92 C-46.67 91.01 -46.34 90.02 -46 89 C-44.43359375 87.45703125 -44.43359375 87.45703125 -42.4375 85.8125 C-36.09701317 80.42308619 -30.39471626 74.56662167 -24.9765625 68.2578125 C-23.02134063 66.02437724 -21.01526916 63.84385216 -18.99536133 61.66894531 C-12.5801092 54.75634445 -6.63860132 47.56397738 -1 40 C-2.39390539 36.84280428 -4.03634972 34.7187347 -6.5 32.3125 C-7.1084375 31.71050781 -7.716875 31.10851562 -8.34375 30.48828125 C-9.9452691 28.91687598 -9.9452691 28.91687598 -12 28 C-12 27.34 -12 26.68 -12 26 C-12.58007812 25.73445313 -13.16015625 25.46890625 -13.7578125 25.1953125 C-16.07532308 23.95984519 -17.86302306 22.55817137 -19.875 20.875 C-25.82616955 16.16896807 -32.35231048 12.60242188 -39 9 C-39.84433594 8.5359375 -40.68867188 8.071875 -41.55859375 7.59375 C-72.47545481 -8.6727941 -110.91029084 -11.98836531 -144.25 -1.6875 C-146.84863122 -0.8324168 -149.42553882 0.07502011 -152 1 C-153.23105469 1.43054687 -154.46210938 1.86109375 -155.73046875 2.3046875 C-191.06140144 15.48398168 -217.5199318 43.17353848 -233.140625 77.0625 C-246.65293908 107.5266263 -247.65025701 139.98783123 -239.90234375 172.046875 C-239.75176514 172.71887939 -239.60118652 173.39088379 -239.44604492 174.08325195 C-239.03507627 175.84926997 -238.54446221 177.59624923 -238.046875 179.33984375 C-237.9746202 184.98173927 -240.59931557 188.97682443 -243.3125 193.8125 C-243.82490234 194.76576172 -244.33730469 195.71902344 -244.86523438 196.70117188 C-248.63361316 203.63361316 -248.63361316 203.63361316 -251 206 C-254.125 206.125 -254.125 206.125 -257 206 C-275.77484427 160.39516539 -279.10015661 113.82012671 -260.28540039 67.46972656 C-254.09634931 52.81391712 -245.98949218 40.09460291 -236.19726562 27.60986328 C-234.8528156 25.86147873 -234.8528156 25.86147873 -233.37890625 23.25390625 C-231.93186332 20.88862644 -230.51502022 19.49372018 -228.375 17.75 C-225.28952745 15.15437437 -222.43355616 12.45571122 -219.625 9.5625 C-162.58387921 -47.86665562 -61.99829574 -51.62924279 0 0 Z " fill="#ECEFF1" transform="translate(394,40)"/>
<path d="M0 0 C2.8125 2.0625 2.8125 2.0625 5 4 C5.804375 3.360625 6.60875 2.72125 7.4375 2.0625 C11.41236069 -0.55623175 15.27731214 -1.21539286 20 -1 C24.57252733 0.03993243 27.8149692 1.52186821 31 5 C32.9730842 4.0351879 34.90358389 3.05768126 36.7890625 1.9296875 C42.17483467 -1.16426673 46.84836092 -1.94037795 53 -1 C58.84252373 0.65745354 62.22429118 3.89883023 65.7734375 8.70703125 C68.82131939 14.40482319 69.31693062 20.1088449 69.3359375 26.41796875 C69.3459227 27.58746819 69.3459227 27.58746819 69.35610962 28.78059387 C69.36617313 30.4167751 69.37092861 32.05299684 69.37060547 33.68920898 C69.37500663 36.19127092 69.41146568 38.69160549 69.44921875 41.19335938 C69.45508275 42.78905651 69.45905493 44.38476195 69.4609375 45.98046875 C69.47530853 46.72532028 69.48967957 47.47017181 69.50448608 48.2375946 C69.47347058 51.75511265 69.2735942 53.64459801 67.09838867 56.47021484 C63.57276677 59.04049371 61.27946298 58.47549589 57 58 C54.82523599 56.45661909 54.18167363 55.36334727 53 53 C52.86890484 50.79664248 52.79715744 48.58964272 52.75390625 46.3828125 C52.72096392 45.04035816 52.68775234 43.6979104 52.65429688 42.35546875 C52.60692363 40.24011826 52.56249617 38.12479375 52.52319336 36.00927734 C52.48337463 33.96683861 52.43185234 31.92494726 52.37890625 29.8828125 C52.3538501 28.65965332 52.32879395 27.43649414 52.30297852 26.17626953 C52.01806694 23.18940439 51.66250817 21.46409436 50 19 C47.71294169 17.85647084 46.40735238 17.89665561 43.875 17.9375 C41.956875 17.9684375 41.956875 17.9684375 40 18 C38.32307858 22.37037096 37.78576831 25.86637203 37.91015625 30.53515625 C37.94012695 32.36723633 37.94012695 32.36723633 37.97070312 34.23632812 C38.03199702 36.79110988 38.09711325 39.34580274 38.16601562 41.90039062 C38.19405273 43.73053711 38.19405273 43.73053711 38.22265625 45.59765625 C38.25109619 46.70633057 38.27953613 47.81500488 38.30883789 48.95727539 C37.95863334 52.40755149 37.05848234 54.23716047 35 57 C31.82178465 58.58910767 28.46060271 58.40420974 25 58 C22.32568511 56.18836733 22.04079641 55.12238923 21 52 C20.88363363 49.76364009 20.82141289 47.52430793 20.7890625 45.28515625 C20.76099889 43.94595121 20.73233446 42.60675866 20.703125 41.26757812 C20.66185728 39.16317023 20.62495618 37.05899667 20.59863281 34.9543457 C20.57098014 32.91829821 20.52512172 30.88329824 20.4765625 28.84765625 C20.45674316 27.63086182 20.43692383 26.41406738 20.41650391 25.16040039 C19.9734391 21.79845789 19.38839198 20.36595897 17 18 C14.72110658 17.51831272 14.72110658 17.51831272 12.3125 17.75 C11.10013672 17.80414063 11.10013672 17.80414063 9.86328125 17.859375 C9.24839844 17.90578125 8.63351563 17.9521875 8 18 C6.28146712 22.48564033 5.74038052 26.25021182 5.69140625 31.04296875 C5.66627406 32.37695802 5.64087569 33.7109423 5.61523438 35.04492188 C5.58639251 37.12523382 5.5623391 39.20545987 5.54370117 41.28588867 C5.5220825 43.30925386 5.48200635 45.33239542 5.44140625 47.35546875 C5.42795166 48.55840576 5.41449707 49.76134277 5.40063477 51.00073242 C5 54 5 54 3.59741211 55.8527832 C0.06803038 58.38748666 -2.69669548 58.30198628 -7 58 C-9.10358381 56.45737187 -9.84054159 55.31891683 -11 53 C-11.11007496 51.44890747 -11.15907791 49.89326902 -11.17700195 48.33837891 C-11.18983719 47.37042389 -11.20267242 46.40246887 -11.21589661 45.40518188 C-11.22328354 44.35623749 -11.23067047 43.30729309 -11.23828125 42.2265625 C-11.246353 41.15127289 -11.25442474 40.07598328 -11.26274109 38.96810913 C-11.27658743 36.69001888 -11.28730712 34.41190784 -11.29516602 32.13378906 C-11.31239583 28.64608624 -11.35627998 25.15932696 -11.40039062 21.671875 C-11.41051579 19.46094449 -11.41903244 17.2500059 -11.42578125 15.0390625 C-11.44328934 13.99416656 -11.46079742 12.94927063 -11.47883606 11.87271118 C-11.45709187 4.63156024 -11.45709187 4.63156024 -9.09838867 1.37255859 C-5.52378841 -0.9655918 -4.14309863 -1.2525647 0 0 Z " fill="#EEF0F1" transform="translate(15,382)"/>
<path d="M0 0 C7.77205854 5.63990089 13.23956448 11.59054869 14.875 21.1875 C14.99660347 24.89640584 14.86310995 26.83271308 13 30 C9.36743982 32.42170679 7.47421305 32.3044503 3.14453125 32.4140625 C2.48289474 32.43342865 1.82125824 32.4527948 1.13957214 32.4727478 C-0.96932164 32.53242687 -3.07827037 32.57888087 -5.1875 32.625 C-6.61916415 32.66319066 -8.05080559 32.70224303 -9.48242188 32.7421875 C-12.98807312 32.83811773 -16.49389445 32.92219197 -20 33 C-20.99 35.475 -20.99 35.475 -22 38 C-17.67435795 39.58255197 -13.571279 40.45144652 -9 41 C-8.505 40.01 -8.505 40.01 -8 39 C-6.01276732 38.29618843 -4.01222047 37.6288189 -2 37 C-1.67 36.67 -1.34 36.34 -1 36 C1.25 35.625 1.25 35.625 4 36 C6.80801697 38.23364986 8.58012484 40.2022372 10.25 43.375 C9.88205426 47.23843031 7.88964636 48.88202509 5.06640625 51.41796875 C-2.34668588 57.09339845 -10.95708935 56.86632836 -20 56 C-27.63097164 54.06214924 -33.22063251 49.2425954 -38.25 43.375 C-42.38611182 35.39821291 -43.81665686 27.71753562 -41.921875 18.890625 C-39.47850693 11.22921665 -34.99930326 4.19128238 -28 0 C-18.91074888 -3.97088546 -8.94050465 -4.72441383 0 0 Z M-22 15 C-22.66 16.65 -23.32 18.3 -24 20 C-17.07 20 -10.14 20 -3 20 C-3.66 18.35 -4.32 16.7 -5 15 C-6.32 15.33 -7.64 15.66 -9 16 C-9 15.01 -9 14.02 -9 13 C-13.71595672 12.76995333 -17.60087404 13.2234299 -22 15 Z " fill="#F1F3F4" transform="translate(561,384)"/>
<path d="M0 0 C5.60030091 4.58723835 9.04923291 11.32314867 10.22265625 18.421875 C10.34323678 21.96589414 10.31498002 24.47508439 8.66064453 27.65917969 C5.83403224 30.47495652 3.60530739 30.10771947 -0.32421875 30.171875 C-1.34996758 30.19667938 -1.34996758 30.19667938 -2.3964386 30.22198486 C-4.57688336 30.2705032 -6.7566307 30.29184191 -8.9375 30.3125 C-10.41735287 30.34065685 -11.8971732 30.3705839 -13.37695312 30.40234375 C-17.00114983 30.47625987 -20.62521374 30.52581252 -24.25 30.5625 C-25.24 33.0375 -25.24 33.0375 -26.25 35.5625 C-24.27 35.8925 -22.29 36.2225 -20.25 36.5625 C-20.25 37.2225 -20.25 37.8825 -20.25 38.5625 C-13.78287812 37.40055848 -8.15377651 35.4376252 -2.25 32.5625 C5.54887247 38.33059386 5.54887247 38.33059386 6.25 42.625 C3.54144469 47.92925415 -0.54928874 50.46605739 -5.9921875 52.67578125 C-14.47417819 55.22937792 -22.727997 55.10030677 -30.859375 51.36328125 C-37.87853701 47.06463338 -43.20542802 40.68616036 -45.77734375 32.81640625 C-47.61240259 24.06575375 -46.62495421 15.38828708 -42.25 7.5625 C-31.5555743 -6.08424785 -14.94944213 -9.68998257 0 0 Z M-26.25 12.5625 C-26.58 14.2125 -26.91 15.8625 -27.25 17.5625 C-20.65 17.5625 -14.05 17.5625 -7.25 17.5625 C-7.25 16.5725 -7.25 15.5825 -7.25 14.5625 C-7.91 14.5625 -8.57 14.5625 -9.25 14.5625 C-9.25 13.9025 -9.25 13.2425 -9.25 12.5625 C-10.72855295 12.06068809 -12.20786058 11.56109924 -13.6875 11.0625 C-14.51121094 10.7840625 -15.33492188 10.505625 -16.18359375 10.21875 C-20.10596666 8.97308148 -22.65396584 10.70026802 -26.25 12.5625 Z " fill="#E6E7EA" transform="translate(409.25,386.4375)"/>
<path d="M0 0 C6.41883978 5.03197765 10.75339721 12.2742839 12.30078125 20.296875 C12.48040136 23.92520116 12.46098707 25.77323219 10.23095703 28.74707031 C6.97690051 31.30573763 4.15936156 31.26647108 0.18359375 31.2734375 C-0.54321594 31.28997375 -1.27002563 31.30651001 -2.01885986 31.32354736 C-4.33166994 31.37198611 -6.64382282 31.39338739 -8.95703125 31.4140625 C-10.52867882 31.44222591 -12.10029584 31.47215387 -13.671875 31.50390625 C-17.51687294 31.57774297 -21.36150697 31.62734198 -25.20703125 31.6640625 C-24.56765625 32.2828125 -23.92828125 32.9015625 -23.26953125 33.5390625 C-21.20703125 35.6640625 -21.20703125 35.6640625 -20.20703125 37.6640625 C-15.62264841 38.65285096 -11.75994305 38.85649178 -7.20703125 37.6640625 C-6.71203125 36.6740625 -6.71203125 36.6740625 -6.20703125 35.6640625 C-3.51953125 34.7890625 -3.51953125 34.7890625 -0.20703125 34.6640625 C2.90185116 36.39786231 5.28224128 38.15333503 7.79296875 40.6640625 C7.87172126 43.49915276 7.29688654 45.09910678 5.40625 47.21875 C-2.10518452 54.00436051 -8.36086001 55.2848984 -18.3984375 55.0859375 C-25.88897807 54.25621608 -32.22741153 51.38776332 -37.20703125 45.6640625 C-37.20703125 45.0040625 -37.20703125 44.3440625 -37.20703125 43.6640625 C-37.86703125 43.6640625 -38.52703125 43.6640625 -39.20703125 43.6640625 C-44.01322959 33.4033879 -46.07551258 24.31904121 -42.453125 13.2265625 C-38.98518798 6.0950055 -32.72656601 -0.31210809 -25.21484375 -3.06640625 C-16.32452432 -5.22442985 -7.98312575 -4.83226373 0 0 Z M-22.20703125 12.6640625 C-22.53703125 13.6540625 -22.86703125 14.6440625 -23.20703125 15.6640625 C-24.19703125 16.1590625 -24.19703125 16.1590625 -25.20703125 16.6640625 C-24.87703125 17.3240625 -24.54703125 17.9840625 -24.20703125 18.6640625 C-17.93703125 18.6640625 -11.66703125 18.6640625 -5.20703125 18.6640625 C-5.20703125 17.6740625 -5.20703125 16.6840625 -5.20703125 15.6640625 C-5.86703125 15.6640625 -6.52703125 15.6640625 -7.20703125 15.6640625 C-7.20703125 15.0040625 -7.20703125 14.3440625 -7.20703125 13.6640625 C-12.57099304 10.08808797 -16.19837423 10.35304057 -22.20703125 12.6640625 Z " fill="#EAECED" transform="translate(287.20703125,385.3359375)"/>
<path d="M0 0 C5.71027299 4.44693826 10.70276572 11.53638879 11.953125 18.75 C12.65852586 26.74068843 11.90586334 32.75779138 7.953125 39.75 C7.416875 40.760625 6.880625 41.77125 6.328125 42.8125 C5.874375 43.451875 5.420625 44.09125 4.953125 44.75 C4.293125 44.75 3.633125 44.75 2.953125 44.75 C2.71722656 45.35457031 2.48132813 45.95914063 2.23828125 46.58203125 C-0.46907989 51.14916023 -6.39840983 53.05091275 -11.35546875 54.359375 C-19.16866007 55.52926461 -26.73665173 53.44324015 -34.046875 50.75 C-34.046875 50.09 -34.046875 49.43 -34.046875 48.75 C-35.036875 48.42 -36.026875 48.09 -37.046875 47.75 C-43.77965485 40.16395696 -47.63660319 33.20815325 -47.29296875 22.87890625 C-46.37807585 14.96435655 -43.43078243 7.67229817 -38.046875 1.75 C-26.48652207 -7.027305 -12.30460116 -7.51426025 0 0 Z M-27.046875 14.75 C-30.09743584 19.03985119 -30.60353913 22.55446811 -30.046875 27.75 C-28.23397005 32.88656401 -25.91640666 35.31523417 -21.046875 37.75 C-16.30540745 38.62804955 -13.62907647 37.8144867 -9.734375 35.1875 C-7.06801497 32.96726247 -5.97359563 31.60615531 -4.359375 28.4375 C-3.94985193 23.60512779 -4.70227354 20.00318932 -7.046875 15.75 C-13.72436209 9.81445592 -19.98047417 9.57109255 -27.046875 14.75 Z " fill="#EFF0F2" transform="translate(138.046875,386.25)"/>
<path d="M0 0 C0.845625 0.433125 1.69125 0.86625 2.5625 1.3125 C4 3 4 3 4.5625 6.375 C4 10 4 10 1.8125 13 C-1 15 -1 15 -3.25 15 C-4.89549139 14.40163949 -6.53841828 13.79603904 -8.17578125 13.17578125 C-8.96339844 12.89089844 -9.75101562 12.60601562 -10.5625 12.3125 C-11.30628906 12.01988281 -12.05007813 11.72726562 -12.81640625 11.42578125 C-15.55580542 10.89162291 -16.681902 11.54396112 -19 13 C-19 13.66 -19 14.32 -19 15 C-17.19015625 15.60134766 -17.19015625 15.60134766 -15.34375 16.21484375 C2.77250485 22.5307757 2.77250485 22.5307757 7 31 C7.79529577 34.21957668 7.66142835 36.76762843 7 40 C6.86207031 40.70382812 6.72414063 41.40765625 6.58203125 42.1328125 C5.14849843 47.19347198 2.49254369 49.92295638 -1.83984375 52.80859375 C-9.6390434 57.11014148 -17.8184074 56.31281314 -26.3359375 54.50390625 C-31.63885256 52.86833283 -35.20302286 49.7977345 -38 45 C-38.625 41.8125 -38.625 41.8125 -38 39 C-36.21875963 36.64621808 -34.86327131 35.34638537 -32.12109375 34.24609375 C-29.26395088 33.91460204 -28.18883239 34.8080923 -25.8125 36.375 C-21.1116818 39.19392918 -17.44016853 39.74094436 -12 40 C-12 38.35 -12 36.7 -12 35 C-13.35347689 34.53963371 -14.707827 34.08183463 -16.0625 33.625 C-16.88363281 33.3465625 -17.70476562 33.068125 -18.55078125 32.78125 C-20.58851026 32.1312567 -22.66706524 31.61101811 -24.75 31.125 C-29.50888992 29.47769195 -31.77534236 26.6182976 -34.75 22.6875 C-37.08521983 17.66677736 -37.62802985 13.13092353 -36 7.875 C-33.54487194 2.20588611 -29.33948077 -1.01021967 -23.75 -3.375 C-14.80985211 -4.86502465 -7.96701198 -4.49590718 0 0 Z " fill="#EBEDEF" transform="translate(506,385)"/>
<path d="M0 0 C2.375 1.625 2.375 1.625 4 4 C3.70819456 10.0357652 1.54500621 14.83348658 -1 20.25 C-1.59578857 21.54478271 -1.59578857 21.54478271 -2.20361328 22.86572266 C-3.45811298 25.58240761 -4.7270382 28.29192185 -6 31 C-6.41475586 31.8859082 -6.82951172 32.77181641 -7.25683594 33.68457031 C-9.81172442 39.13567229 -12.38571513 44.57712531 -15 50 C-15.54398437 51.13953125 -16.08796875 52.2790625 -16.6484375 53.453125 C-18 56 -18 56 -19.75 57.375 C-23.06093026 58.29470285 -25.57702799 58.42036498 -29 58 C-34.0551256 54.00482009 -36.20945501 48.97198669 -38.8125 43.1875 C-39.68344295 41.30141175 -40.55585553 39.41600149 -41.4296875 37.53125 C-41.85991211 36.59796875 -42.29013672 35.6646875 -42.73339844 34.703125 C-44.84798261 30.19027304 -47.11062259 25.75337992 -49.3996582 21.3269043 C-55.09546434 10.14794769 -55.09546434 10.14794769 -54.875 5.1875 C-53.38461538 1.46153846 -53.38461538 1.46153846 -51 0 C-45.53364269 -0.70533643 -45.53364269 -0.70533643 -43 0 C-37.91863699 3.95574462 -35.84547471 8.99123827 -33.375 14.75 C-32.9934375 15.6059375 -32.611875 16.461875 -32.21875 17.34375 C-29.82019383 22.802533 -27.77763887 28.30948258 -26 34 C-25.34 34 -24.68 34 -24 34 C-23.87850586 33.122229 -23.75701172 32.24445801 -23.63183594 31.34008789 C-22.63050815 26.04674728 -20.39273494 21.35773963 -18.25 16.4375 C-17.81945312 15.40947266 -17.38890625 14.38144531 -16.9453125 13.32226562 C-14.61535147 7.94033469 -12.66333974 3.65192003 -8 0 C-4.61786861 -1.12737713 -3.35228621 -1.06292002 0 0 Z " fill="#EDEFF1" transform="translate(357,382)"/>
<path d="M0 0 C3.64354816 3.02169688 5.20478104 6.18534596 7.015625 10.515625 C7.27631775 11.13145447 7.5370105 11.74728394 7.80560303 12.3817749 C8.62961325 14.33412823 9.43995065 16.29181888 10.25 18.25 C10.80899969 19.58110586 11.3688866 20.9118395 11.9296875 22.2421875 C13.2967496 25.49054858 14.65161515 28.74383451 16 32 C17.84441862 29.23337206 19.09898707 26.66949831 20.42578125 23.6328125 C21.12670898 22.05693359 21.12670898 22.05693359 21.84179688 20.44921875 C22.8174615 18.24393165 23.78628951 16.03560643 24.74804688 13.82421875 C30.26402244 1.49439103 30.26402244 1.49439103 36.5 -1 C39.79148573 -1 41.37105544 0.081581 44 2 C44.66 2.66 45.32 3.32 46 4 C45.6936827 9.27256803 44.11481798 13.6892078 41.9375 18.4375 C41.62876953 19.12561768 41.32003906 19.81373535 41.00195312 20.52270508 C37.55441647 28.12507611 33.82807087 35.58346644 30 43 C29.67435059 43.63728027 29.34870117 44.27456055 29.01318359 44.93115234 C28.08060067 46.75079201 27.13654676 48.56390244 26.1875 50.375 C25.37345703 51.93347656 25.37345703 51.93347656 24.54296875 53.5234375 C23 56 23 56 20 58 C15.00612357 58.90053509 15.00612357 58.90053509 12 58 C6.07255385 51.99078221 2.79702691 42.67491182 -0.6965332 35.08862305 C-1.68874057 32.93480705 -2.69203794 30.78643738 -3.69726562 28.63867188 C-4.34440182 27.2476989 -4.99090795 25.85643258 -5.63671875 24.46484375 C-6.07741951 23.519188 -6.07741951 23.519188 -6.52702332 22.5544281 C-12.47544514 9.60712232 -12.47544514 9.60712232 -12 2 C-7.57931554 -0.6313598 -4.98045779 -1.62406232 0 0 Z " fill="#ECEDEF" transform="translate(164,382)"/>
<path d="M0 0 C0.99 0.66 1.98 1.32 3 2 C3.66 1.525625 4.32 1.05125 5 0.5625 C8.6423735 -1.33456953 11.91147475 -2.27706123 16 -2 C19.2153009 -0.85962511 22.55557452 0.55557452 25 3 C24.65527152 7.56765235 24.23833701 10.67530734 21 14 C18.6953125 14.50390625 18.6953125 14.50390625 16.125 14.5625 C11.98082426 14.82830719 9.27525475 15.23650381 6 18 C3.74895822 21.45633573 3.73476975 24.45747141 3.69140625 28.5234375 C3.66626953 29.791875 3.64113281 31.0603125 3.61523438 32.3671875 C3.5770928 35.03122973 3.54890993 37.69517818 3.52148438 40.359375 C3.49505859 41.63039063 3.46863281 42.90140625 3.44140625 44.2109375 C3.42795166 45.36899902 3.41449707 46.52706055 3.40063477 47.72021484 C2.95564356 51.36312273 1.81066205 53.83261738 0 57 C-1.258125 57.020625 -2.51625 57.04125 -3.8125 57.0625 C-4.87404297 57.07990234 -4.87404297 57.07990234 -5.95703125 57.09765625 C-8 57 -8 57 -11 56 C-12.99659955 53.0140946 -13.25591223 50.54468475 -13.2746582 47.00366211 C-13.28419022 46.01260971 -13.29372223 45.02155731 -13.30354309 44.00047302 C-13.30263168 42.93684036 -13.30172028 41.8732077 -13.30078125 40.77734375 C-13.30506638 39.68031631 -13.3093515 38.58328888 -13.31376648 37.45301819 C-13.31950622 35.13559662 -13.32001267 32.81815704 -13.31567383 30.50073242 C-13.31250886 26.94744354 -13.33599566 23.39498312 -13.36132812 19.84179688 C-13.36360057 17.59114689 -13.36430487 15.34049465 -13.36328125 13.08984375 C-13.372491 12.02418686 -13.38170074 10.95852997 -13.39118958 9.86058044 C-13.38496078 8.87268021 -13.37873199 7.88477997 -13.37231445 6.86694336 C-13.37294388 5.99742538 -13.3735733 5.12790741 -13.3742218 4.23204041 C-12.91620299 1.50019396 -12.18696841 0.65355561 -10 -1 C-6.01727361 -2.32757546 -3.9189808 -1.3296542 0 0 Z " fill="#EBEEEF" transform="translate(441,383)"/>
<path d="M0 0 C0.70125 0.06703125 1.4025 0.1340625 2.125 0.203125 C4 0.75 4 0.75 6 3.75 C6.4140625 6.66796875 6.4140625 6.66796875 6.625 9.9375 C6.69976562 11.02417969 6.77453125 12.11085937 6.8515625 13.23046875 C6.90054688 14.06191406 6.94953125 14.89335937 7 15.75 C7.88751953 15.71519531 7.88751953 15.71519531 8.79296875 15.6796875 C17.33230954 15.48466177 17.33230954 15.48466177 21 17.75 C23.1914316 20.45276564 24.04165996 21.87514088 23.875 25.375 C22.65276979 28.69248199 21.13090817 30.18454591 18 31.75 C16.12943209 31.9775015 14.25314042 32.15962811 12.375 32.3125 C11.37210937 32.39628906 10.36921875 32.48007813 9.3359375 32.56640625 C8.56507813 32.62699219 7.79421875 32.68757813 7 32.75 C6.96132813 33.97976562 6.96132813 33.97976562 6.921875 35.234375 C6.83679688 36.85085937 6.83679688 36.85085937 6.75 38.5 C6.70359375 39.56734375 6.6571875 40.6346875 6.609375 41.734375 C5.8843909 45.32211685 4.87571782 46.54598269 2 48.75 C-1 49.25 -1 49.25 -4 48.75 C-7.14667967 46.3687289 -8.30539194 44.56353444 -9 40.75 C-9.06624507 39.00113019 -9.08552595 37.24997252 -9.0625 35.5 C-9.05347656 34.60796875 -9.04445313 33.7159375 -9.03515625 32.796875 C-9.02355469 32.12140625 -9.01195312 31.4459375 -9 30.75 C-9.74765625 30.84539062 -10.4953125 30.94078125 -11.265625 31.0390625 C-12.25046875 31.14992187 -13.2353125 31.26078125 -14.25 31.375 C-15.71179688 31.54902344 -15.71179688 31.54902344 -17.203125 31.7265625 C-20.19657765 31.7516473 -21.55308828 31.42819167 -24 29.75 C-26 26.75 -26 26.75 -25.75 23.25 C-25 19.75 -25 19.75 -23 16.75 C-19.85069107 15.70023036 -17.61185544 15.64868405 -14.3125 15.6875 C-13.31863281 15.69652344 -12.32476562 15.70554688 -11.30078125 15.71484375 C-10.16189453 15.73224609 -10.16189453 15.73224609 -9 15.75 C-9.05220703 14.87988281 -9.05220703 14.87988281 -9.10546875 13.9921875 C-9.28620954 8.77652464 -8.9354578 5.26608892 -6 0.75 C-3.64710301 -0.4264485 -2.58181049 -0.28475851 0 0 Z " fill="#E9ECEE" transform="translate(357,202.25)"/>
<path d="M0 0 C5.59187657 4.58033792 9.11226716 11.34321397 10.1875 18.45703125 C10.28890309 22.78567582 10.20135038 24.88547442 7.75 28.5625 C5.08942484 28.85450267 2.66500718 28.95864056 0.00390625 28.92578125 C-1.14646873 28.92652901 -1.14646873 28.92652901 -2.32008362 28.92729187 C-3.94331449 28.92494978 -5.56654889 28.91521326 -7.18969727 28.89868164 C-9.67432166 28.87512494 -12.15787074 28.87811478 -14.64257812 28.88476562 C-16.2187564 28.87918767 -17.79493015 28.87207705 -19.37109375 28.86328125 C-20.11491806 28.86419266 -20.85874237 28.86510406 -21.62510681 28.86604309 C-25.36898231 28.81462466 -27.05614391 28.6917374 -30.25 26.5625 C-29.92 25.9025 -29.59 25.2425 -29.25 24.5625 C-30.24 24.5625 -31.23 24.5625 -32.25 24.5625 C-32.58 25.2225 -32.91 25.8825 -33.25 26.5625 C-33.58 25.5725 -33.91 24.5825 -34.25 23.5625 C-33.5384375 22.881875 -33.5384375 22.881875 -32.8125 22.1875 C-31.15972192 20.62991796 -31.15972192 20.62991796 -30.25 18.5625 C-22.33 18.5625 -14.41 18.5625 -6.25 18.5625 C-6.745 16.5825 -6.745 16.5825 -7.25 14.5625 C-7.91 14.5625 -8.57 14.5625 -9.25 14.5625 C-9.25 13.9025 -9.25 13.2425 -9.25 12.5625 C-10.85341555 12.22557215 -12.45776555 11.89308907 -14.0625 11.5625 C-14.95582031 11.376875 -15.84914063 11.19125 -16.76953125 11 C-19.32260693 10.47565157 -19.32260693 10.47565157 -22.25 10.5625 C-22.58 11.2225 -22.91 11.8825 -23.25 12.5625 C-24.9 12.2325 -26.55 11.9025 -28.25 11.5625 C-28.58 12.2225 -28.91 12.8825 -29.25 13.5625 C-29.91 13.2325 -30.57 12.9025 -31.25 12.5625 C-31.25 11.5725 -31.25 10.5825 -31.25 9.5625 C-34.85992379 10.21835189 -34.85992379 10.21835189 -38.25 11.5625 C-39.24 10.9025 -40.23 10.2425 -41.25 9.5625 C-40.37572594 4.46256798 -37.13102033 1.74278055 -33.25 -1.4375 C-22.72333156 -7.61522703 -10.07812102 -6.53247232 0 0 Z " fill="#F1F3F4" transform="translate(409.25,386.4375)"/>
<path d="M0 0 C2.18383789 1.36108398 2.18383789 1.36108398 4 4 C4.59950991 7.73786979 4.53600046 11.44429025 4.49609375 15.22265625 C4.49754898 16.31968369 4.49900421 17.41671112 4.50050354 18.54698181 C4.49884445 20.86443744 4.48728222 23.18190407 4.46655273 25.49926758 C4.43757974 29.05272018 4.445948 32.60468307 4.45898438 36.15820312 C4.45274765 38.40886144 4.44435722 40.65951503 4.43359375 42.91015625 C4.43652939 43.97581314 4.43946503 45.04147003 4.44248962 46.13941956 C4.42346336 47.62126991 4.42346336 47.62126991 4.40405273 49.13305664 C4.39864975 50.00257462 4.39324677 50.87209259 4.38768005 51.76795959 C3.91775883 54.47349772 3.13051369 55.32419748 1 57 C-2.09173752 58.54586876 -4.59429552 58.29359521 -8 58 C-10.55423433 56.01724528 -11.82674497 54.80465043 -12.5146637 51.60974121 C-12.52086227 50.72467896 -12.52706085 49.8396167 -12.53344727 48.92773438 C-12.5492836 47.91988892 -12.56511993 46.91204346 -12.58143616 45.87365723 C-12.57647629 44.79128784 -12.57151642 43.70891846 -12.56640625 42.59375 C-12.57260483 41.47689819 -12.57880341 40.36004639 -12.58518982 39.20935059 C-12.59229084 36.84904858 -12.58910914 34.48869652 -12.57641602 32.12841797 C-12.5625501 28.51306214 -12.59662088 24.90029343 -12.63476562 21.28515625 C-12.63571679 18.99218687 -12.63385814 16.69921423 -12.62890625 14.40625 C-12.64216446 13.32388062 -12.65542267 12.24151123 -12.66908264 11.12634277 C-12.57642126 3.67501244 -12.57642126 3.67501244 -9.68334961 0.28710938 C-5.97936315 -1.48956396 -3.90825131 -1.13694583 0 0 Z " fill="#F2F3F5" transform="translate(230,382)"/>
<path d="M0 0 C3.93504286 1.33975195 6.60986526 3.5798549 9.4375 6.625 C11.55133594 11.19088564 11.6885398 15.04749083 11 20 C9.37776841 23.73113266 7.05532814 26.32658788 4 29 C-1.2064736 30.7354912 -6.14934089 30.66344383 -11.3125 28.8125 C-14.82770834 26.4417781 -17.10640381 23.78719238 -19 20 C-19.59106487 14.31668392 -19.27243416 9.85222997 -16 5 C-10.71951967 0.23468849 -6.99609391 -0.81429946 0 0 Z " fill="#EFF2F3" transform="translate(207,130)"/>
<path d="M0 0 C3.02508145 1.73602105 5.41790069 3.83580137 7 7 C7.69370988 10.94153342 8.00041022 14.49633464 5.71875 17.92578125 C2.74557004 20.75705944 0.07583699 22.38450037 -4.0625 22.6875 C-9.00169449 21.82510096 -10.54586416 20.53838305 -14 17 C-15.61429923 13.77140153 -15.59570657 10.49006347 -15 7 C-11.47244328 0.85310079 -6.96461519 -1.18876549 0 0 Z " fill="#EDF1F3" transform="translate(263,81)"/>
<path d="M0 0 C2.8100346 1.79363911 4.50940468 3.01880935 6 6 C6.27097299 10.13233808 6.37166174 12.99432707 4.9375 16.875 C2.16086701 19.92033941 0.05991495 20.45867801 -4 21 C-7.60900903 19.91729729 -10.09856369 18.78512195 -12.9375 16.3125 C-14.51074793 12.88837216 -14.67423786 9.65393422 -14 6 C-10.32759145 0.24655994 -6.71744997 -0.96515086 0 0 Z " fill="#E5EAEB" transform="translate(334,68)"/>
<path d="M0 0 C3.15441888 1.82624251 3.82861833 2.48585498 5 6 C5.67039106 12.9273743 5.67039106 12.9273743 3.125 17 C-0.66980814 19.42867721 -3.17080064 19.78578534 -7.6171875 19.546875 C-10.21673359 18.95025786 -11.31240143 18.36403334 -13.125 16.4375 C-15.31544373 12.42168649 -15.80349809 10.4995893 -15 6 C-11.139094 -0.54739192 -7.23392855 -1.52293233 0 0 Z " fill="#E6ECEE" transform="translate(230,356)"/>
<path d="M0 0 C2.69463303 2.11721166 3.59949961 4.16570945 4.75 7.375 C4.68354451 11.22941842 4.31005795 13.52371191 2.1875 16.75 C-1.18818591 19.00045727 -4.20949712 19.59188584 -8.25 19.375 C-11.87090756 17.80069236 -13.04255284 16.68617074 -15.25 13.375 C-15.92226891 6.42822129 -15.92226891 6.42822129 -13.375 2.4375 C-9.43696381 -1.38471159 -5.24669785 -1.45741607 0 0 Z " fill="#D0DBE4" transform="translate(292.25,265.625)"/>
<path d="M0 0 C2.52224843 2.27002359 2.94705668 3.63696007 3.4375 7 C3 10 3 10 1.375 12.375 C-1 14 -1 14 -4 14.5625 C-7 14 -7 14 -9.4375 11.9375 C-11.48562148 8.08703161 -11.22685696 6.14064223 -10 2 C-6.95062482 -1.61407429 -4.34375767 -1.38630564 0 0 Z " fill="#D2D9DD" transform="translate(183,174)"/>
<path d="M0 0 C2 3 2 3 1.875 6.5 C1 10 1 10 -0.6875 12 C-3.89970645 13.38906225 -5.6936636 13.05521374 -9 12 C-10.9375 10.375 -10.9375 10.375 -12 8 C-12 4.4375 -12 4.4375 -11 1 C-7.14468237 -2.63501376 -4.61250986 -2.25500482 0 0 Z " fill="#E6EDF2" transform="translate(404,168)"/>
<path d="M0 0 C0.66 0.66 1.32 1.32 2 2 C1.319375 2.7425 0.63875 3.485 -0.0625 4.25 C-2.28353676 6.75949064 -2.28353676 6.75949064 -1.75 9.3125 C-1.5025 9.869375 -1.255 10.42625 -1 11 C-1.515625 10.79375 -2.03125 10.5875 -2.5625 10.375 C-6.03265671 9.84112974 -8.70635791 10.92323239 -12 12 C-12.33 13.65 -12.66 15.3 -13 17 C-17.31196609 17.94324258 -21.62065881 18.48041715 -26 19 C-26.33 17.68 -26.66 16.36 -27 15 C-25.97261719 14.50371094 -24.94523437 14.00742187 -23.88671875 13.49609375 C-15.57730385 9.43782052 -7.66613047 5.19737659 0 0 Z " fill="#C7D1D7" transform="translate(372,286)"/>
<path d="M0 0 C0.99 0.66 1.98 1.32 3 2 C4.66967972 1.3409159 6.33607955 0.67349161 8 0 C10.8125 0.375 10.8125 0.375 13 1 C6.82159627 6.14866978 0.09753741 11.18924166 -7 15 C-9.25 14.4375 -9.25 14.4375 -11 13 C-11.33 11.68 -11.66 10.36 -12 9 C-7.545 8.505 -7.545 8.505 -3 8 C-3.2784375 6.824375 -3.2784375 6.824375 -3.5625 5.625 C-4 3 -4 3 -3 1 C-2.01 0.67 -1.02 0.34 0 0 Z " fill="#D4DBE1" transform="translate(379,305)"/>
<path d="M0 0 C1.84765625 0.33984375 1.84765625 0.33984375 4.0625 0.9375 C5.16271484 1.22947266 5.16271484 1.22947266 6.28515625 1.52734375 C7.13400391 1.76130859 7.13400391 1.76130859 8 2 C7.67 3.32 7.34 4.64 7 6 C7.66 6 8.32 6 9 6 C9.33 5.01 9.66 4.02 10 3 C10 3.66 10 4.32 10 5 C10.66 5 11.32 5 12 5 C12.33 5.99 12.66 6.98 13 8 C15.47739354 8.90837763 17.33579484 9 20 9 C20 11.31 20 13.62 20 16 C16.50703749 17.23820553 16.50703749 17.23820553 14.25390625 16.1796875 C8.43320707 11.68981792 3.63234293 6.69116417 -1 1 C-0.67 0.67 -0.34 0.34 0 0 Z " fill="#D8DFE5" transform="translate(171,289)"/>
<path d="M0 0 C4.45783133 -0.36144578 4.45783133 -0.36144578 6.6875 1.125 C8.86292283 4.2327469 10.187078 7.36306753 9.75 11.1875 C9 13 9 13 7 16 C3.875 16.6875 3.875 16.6875 1 17 C1 16.34 1 15.68 1 15 C1.66 15 2.32 15 3 15 C2.79375 14.071875 2.5875 13.14375 2.375 12.1875 C2 9 2 9 4 6 C2.35 6 0.7 6 -1 6 C-0.67 4.02 -0.34 2.04 0 0 Z " fill="#D8E2EA" transform="translate(285,266)"/>
<path d="M0 0 C1.65 0 3.3 0 5 0 C5.33 0.66 5.66 1.32 6 2 C7.64363134 2.72159424 9.31050386 3.39351421 11 4 C10.67 5.65 10.34 7.3 10 9 C9.36191406 9.12117188 8.72382813 9.24234375 8.06640625 9.3671875 C7.24011719 9.53476562 6.41382813 9.70234375 5.5625 9.875 C4.32693359 10.11863281 4.32693359 10.11863281 3.06640625 10.3671875 C2.38449219 10.57601563 1.70257813 10.78484375 1 11 C0.67 11.66 0.34 12.32 0 13 C-0.33 11.68 -0.66 10.36 -1 9 C-1.66 9 -2.32 9 -3 9 C-2.24438454 5.86959309 -1.44731183 2.89462366 0 0 Z " fill="#F6F8FB" transform="translate(156,383)"/>
<path d="M0 0 C1.98 0.99 3.96 1.98 6 3 C5.67 4.98 5.34 6.96 5 9 C3.66666667 8.33333333 2.33333333 7.66666667 1 7 C0.731875 7.639375 0.46375 8.27875 0.1875 8.9375 C-1 11 -1 11 -4 12 C-3.01 12 -2.02 12 -1 12 C-1.66 13.65 -2.32 15.3 -3 17 C-3.99 17 -4.98 17 -6 17 C-6 16.34 -6 15.68 -6 15 C-7.98 15.66 -9.96 16.32 -12 17 C-11.63648438 16.52691406 -11.27296875 16.05382812 -10.8984375 15.56640625 C-7.05368143 10.50907327 -3.47221015 5.31913045 0 0 Z " fill="#DBE2E8" transform="translate(408,248)"/>
<path d="M0 0 C0.763125 0.20625 1.52625 0.4125 2.3125 0.625 C0.76502468 4.63561652 -1.80440054 6.61292367 -5.125 9.25 C-6.57712891 10.41402344 -6.57712891 10.41402344 -8.05859375 11.6015625 C-9.88624639 13.00828474 -11.76851319 14.34567546 -13.6875 15.625 C-14.0175 12.985 -14.3475 10.345 -14.6875 7.625 C-12.0475 6.965 -9.4075 6.305 -6.6875 5.625 C-6.3575 4.305 -6.0275 2.985 -5.6875 1.625 C-2.6875 -0.375 -2.6875 -0.375 0 0 Z " fill="#CCD5D9" transform="translate(405.6875,290.375)"/>
<path d="M0 0 C0.33 0.66 0.66 1.32 1 2 C1.66 2.33 2.32 2.66 3 3 C3.625 5.0625 3.625 5.0625 4 7 C2.88625 7.0825 1.7725 7.165 0.625 7.25 C-3.05753944 7.57873787 -3.05753944 7.57873787 -4.4375 10.0625 C-4.7159375 11.0215625 -4.7159375 11.0215625 -5 12 C-5.66 12 -6.32 12 -7 12 C-7 13.32 -7 14.64 -7 16 C-9.31 15.67 -11.62 15.34 -14 15 C-10.83618873 11.11303187 -7.5949523 7.50277403 -4 4 C-3.236875 3.236875 -2.47375 2.47375 -1.6875 1.6875 C-1.130625 1.130625 -0.57375 0.57375 0 0 Z " fill="#CAD3D9" transform="translate(395,265)"/>
<path d="M0 0 C-0.0625 1.75 -0.0625 1.75 -1 4 C-2.7325 4.61875 -2.7325 4.61875 -4.5 5.25 C-6.50528959 6.21636335 -6.50528959 6.21636335 -8 8 C-9.07216125 12.73083803 -8.9781793 17.41634187 -8.9375 22.25 C-8.95361328 23.56742187 -8.96972656 24.88484375 -8.98632812 26.2421875 C-9.02169394 29.49584203 -9.02503303 32.74634045 -9 36 C-9.33 36 -9.66 36 -10 36 C-10.12379245 31.51604697 -10.21442571 27.03300398 -10.2746582 22.54785156 C-10.29977103 21.0229357 -10.33386883 19.49813985 -10.37719727 17.97363281 C-10.43800044 15.77899574 -10.46623887 13.5859519 -10.48828125 11.390625 C-10.51446533 10.07094727 -10.54064941 8.75126953 -10.56762695 7.39160156 C-10 4 -10 4 -7.64526367 1.55371094 C-4.7719796 -0.1339291 -3.26897758 -0.37359744 0 0 Z " fill="#D0D7D9" transform="translate(228,381)"/>
<path d="M0 0 C0.66 0.66 1.32 1.32 2 2 C1.319375 2.7425 0.63875 3.485 -0.0625 4.25 C-2.28353676 6.75949064 -2.28353676 6.75949064 -1.75 9.3125 C-1.5025 9.869375 -1.255 10.42625 -1 11 C-1.556875 10.814375 -2.11375 10.62875 -2.6875 10.4375 C-5.02322803 9.84408801 -5.02322803 9.84408801 -7.4375 10.5 C-10.2832481 11.05526792 -12.21591523 10.71590751 -15 10 C-11.86350023 7.57294661 -8.60330681 5.42827692 -5.25 3.3125 C-4.26515625 2.68988281 -3.2803125 2.06726563 -2.265625 1.42578125 C-1.51796875 0.95527344 -0.7703125 0.48476563 0 0 Z " fill="#BCCACF" transform="translate(372,286)"/>
<path d="M0 0 C2.49159518 2.49159518 2.77128348 3.49301338 3 7 C2.20163682 9.75844714 1.15398459 12.37256615 0 15 C-2.31 15.33 -4.62 15.66 -7 16 C-4.69 10.72 -2.38 5.44 0 0 Z " fill="#D6DCE1" transform="translate(420,225)"/>
<path d="M0 0 C3.28771612 1.54399753 6.24733837 3.39621687 9.25 5.4375 C10.14203125 6.03433594 11.0340625 6.63117188 11.953125 7.24609375 C12.62859375 7.82488281 13.3040625 8.40367187 14 9 C14 9.99 14 10.98 14 12 C10.7 12 7.4 12 4 12 C3.814375 10.88625 3.814375 10.88625 3.625 9.75 C3.04010064 7.17644284 2.23197224 5.30994794 1 3 C0.67 2.01 0.34 1.02 0 0 Z " fill="#BFC9CE" transform="translate(205,285)"/>
<path d="M0 0 C0.33 0.66 0.66 1.32 1 2 C2.43791516 1.85831863 3.8753237 1.71148957 5.3125 1.5625 C6.11300781 1.48128906 6.91351563 1.40007812 7.73828125 1.31640625 C10.16087179 1.04734307 10.16087179 1.04734307 13 0 C13 0.66 13 1.32 13 2 C13.89203125 1.84402344 14.7840625 1.68804687 15.703125 1.52734375 C16.87359375 1.33269531 18.0440625 1.13804687 19.25 0.9375 C20.99023438 0.64166016 20.99023438 0.64166016 22.765625 0.33984375 C25.62522624 0.0393784 27.33325929 0.0560794 30 1 C30 1.33 30 1.66 30 2 C18.26207161 3.66411137 6.85105258 4.24949584 -5 4 C-4.67 3.34 -4.34 2.68 -4 2 C-2.68 2 -1.36 2 0 2 C0 1.34 0 0.68 0 0 Z " fill="#949FA4" transform="translate(286,337)"/>
<path d="M0 0 C1.8125 0.125 1.8125 0.125 4 1 C6.35794387 4.41495319 7.00933547 6.45854297 6.9375 10.625 C5.88086664 14.42888011 5.27588147 15.81607902 2 18 C-0.70357261 18.60998388 -3.21692771 18.81446185 -6 19 C-6.33 18.34 -6.66 17.68 -7 17 C-6.21625 16.87625 -5.4325 16.7525 -4.625 16.625 C-1.85942178 16.20882007 -1.85942178 16.20882007 0 14 C0 14.66 0 15.32 0 16 C0.66 16 1.32 16 2 16 C3.56272189 11.60746227 3.56272189 11.60746227 4 7 C3.34 6.34 2.68 5.68 2 5 C2.33 4.34 2.66 3.68 3 3 C2.01 2.67 1.02 2.34 0 2 C0 1.34 0 0.68 0 0 Z " fill="#BFC9D0" transform="translate(290,266)"/>
<path d="M0 0 C0.33 0.66 0.66 1.32 1 2 C4.02934491 2.65772428 4.02934491 2.65772428 7 3 C7.061875 3.78375 7.12375 4.5675 7.1875 5.375 C7.455625 6.24125 7.72375 7.1075 8 8 C10.47636012 9.37466625 10.47636012 9.37466625 13 10 C12.95875 10.78375 12.9175 11.5675 12.875 12.375 C12.71271266 15.16116119 12.71271266 15.16116119 15 17 C12 17 12 17 9.625 14.76953125 C8.75875 13.79371094 7.8925 12.81789063 7 11.8125 C5.700625 10.36810547 5.700625 10.36810547 4.375 8.89453125 C2.28737904 6.35024321 0.59506057 3.87005964 -1 1 C-0.67 0.67 -0.34 0.34 0 0 Z " fill="#CDD3DD" transform="translate(156,272)"/>
<path d="M0 0 C2.5 1.375 2.5 1.375 5 3 C5 3.66 5 4.32 5 5 C4.195625 5.268125 3.39125 5.53625 2.5625 5.8125 C1.716875 6.204375 0.87125 6.59625 0 7 C-0.33 7.99 -0.66 8.98 -1 10 C-3.375 11.3125 -3.375 11.3125 -6 12 C-6.99 11.34 -7.98 10.68 -9 10 C-9 9.34 -9 8.68 -9 8 C-8.4225 7.95875 -7.845 7.9175 -7.25 7.875 C-3.86709577 6.55942613 -2.82987896 4.02876518 -1 1 C-0.67 0.67 -0.34 0.34 0 0 Z " fill="#F7F9FB" transform="translate(377,386)"/>
<path d="M0 0 C2.79514357 2.11524378 3.82464634 3.35703659 4.75 6.75 C4.87375 7.86375 4.87375 7.86375 5 9 C4.01 8.67 3.02 8.34 2 8 C2 7.01 2 6.02 2 5 C0.68 5 -0.64 5 -2 5 C-2.66 4.01 -3.32 3.02 -4 2 C-6.05925139 1.27617533 -6.05925139 1.27617533 -8 1 C-8 2.98 -8 4.96 -8 7 C-8.66 7 -9.32 7 -10 7 C-10.66 7.66 -11.32 8.32 -12 9 C-12 6.69 -12 4.38 -12 2 C-7.57931554 -0.6313598 -4.98045779 -1.62406232 0 0 Z " fill="#B6BFC4" transform="translate(164,382)"/>
<path d="M0 0 C21.72340426 -0.19148936 21.72340426 -0.19148936 31 1 C31 1.99 31 2.98 31 4 C26.04653013 5.59789351 21.86717585 4.28306814 17 3 C17 2.34 17 1.68 17 1 C11.39 1 5.78 1 0 1 C0 0.67 0 0.34 0 0 Z " fill="#B4C2C4" transform="translate(280,4)"/>
<path d="M0 0 C0.33 0.66 0.66 1.32 1 2 C0.09176973 4.43557572 -0.86828071 6.76195517 -1.9375 9.125 C-2.22818359 9.78371094 -2.51886719 10.44242188 -2.81835938 11.12109375 C-3.53860198 12.75049505 -4.26841143 14.37566132 -5 16 C-8 14 -8 14 -8.51171875 12.0546875 C-8.67447917 10.03645833 -8.83723958 8.01822917 -9 6 C-7.35 6 -5.7 6 -4 6 C-3.67 5.01 -3.34 4.02 -3 3 C-1.4375 1.3125 -1.4375 1.3125 0 0 Z " fill="#E1E4E8" transform="translate(448,227)"/>
<path d="M0 0 C2.49361571 1.20381448 4.68143083 2.45428722 7 4 C7.5 7.3125 7.5 7.3125 7 11 C4.5 13.9375 4.5 13.9375 2 16 C1.01 15.67 0.02 15.34 -1 15 C0.3125 11.5625 0.3125 11.5625 2 8 C2.99 7.67 3.98 7.34 5 7 C4.175 6.21625 3.35 5.4325 2.5 4.625 C0 2 0 2 0 0 Z " fill="#D8DADD" transform="translate(503,384)"/>
<path d="M0 0 C-2.64738916 1.4606285 -3.89448334 2 -7 2 C-7.33 2.99 -7.66 3.98 -8 5 C-10.97 4.34 -13.94 3.68 -17 3 C-17.33 3.99 -17.66 4.98 -18 6 C-18.33 5.01 -18.66 4.02 -19 3 C-21.64 2.67 -24.28 2.34 -27 2 C-27 1.67 -27 1.34 -27 1 C-23.4375865 0.83144992 -19.87505676 0.66549228 -16.3125 0.5 C-15.30509766 0.45230469 -14.29769531 0.40460938 -13.25976562 0.35546875 C-11.79506836 0.28779297 -11.79506836 0.28779297 -10.30078125 0.21875 C-9.40528564 0.17685547 -8.50979004 0.13496094 -7.5871582 0.09179688 C-5.05557612 0.00197194 -2.53292812 -0.01596803 0 0 Z " fill="#B1BBC1" transform="translate(306,312)"/>
<path d="M0 0 C2 3 2 3 1.875 6.5625 C1 10 1 10 -1.0625 11.4375 C-1.701875 11.623125 -2.34125 11.80875 -3 12 C-3 9.69 -3 7.38 -3 5 C-2.34 4.67 -1.68 4.34 -1 4 C-1 3.34 -1 2.68 -1 2 C-3.97 1.67 -6.94 1.34 -10 1 C-7.70642344 -3.58715312 -3.81728609 -1.62437706 0 0 Z " fill="#D5DCE1" transform="translate(404,168)"/>
<path d="M0 0 C0.66 0 1.32 0 2 0 C2 0.66 2 1.32 2 2 C2.99 2.33 3.98 2.66 5 3 C3.42953257 4.06096463 1.84305483 5.09826235 0.25 6.125 C-0.63171875 6.70507812 -1.5134375 7.28515625 -2.421875 7.8828125 C-5 9 -5 9 -7.265625 8.4296875 C-9 7 -9 7 -10 3 C-6.7 3 -3.4 3 0 3 C0 2.01 0 1.02 0 0 Z " fill="#B9C2C7" transform="translate(377,311)"/>
<path d="M0 0 C1.84765625 0.33984375 1.84765625 0.33984375 4.0625 0.9375 C5.16271484 1.22947266 5.16271484 1.22947266 6.28515625 1.52734375 C7.13400391 1.76130859 7.13400391 1.76130859 8 2 C7.67 3.32 7.34 4.64 7 6 C7.66 6 8.32 6 9 6 C9.33 5.01 9.66 4.02 10 3 C10 3.66 10 4.32 10 5 C10.66 5 11.32 5 12 5 C12 5.66 12 6.32 12 7 C11.01 7 10.02 7 9 7 C9.66 8.65 10.32 10.3 11 12 C9 12 9 12 6.6875 9.875 C3.99702999 6.99682278 1.48615785 4.0544225 -1 1 C-0.67 0.67 -0.34 0.34 0 0 Z " fill="#BDC4CC" transform="translate(171,289)"/>
<path d="M0 0 C3.77545388 1.09068668 6.47043472 1.9083091 9 5 C7.70700306 7.88437779 6.34058637 9.87219421 4 12 C4 11.34 4 10.68 4 10 C3.01 9.67 2.02 9.34 1 9 C1.20625 8.2575 1.4125 7.515 1.625 6.75 C2.04408751 3.67669159 1.61949011 2.57213134 0 0 Z " fill="#D5DADE" transform="translate(423,257)"/>
<path d="M0 0 C-0.804375 0.28875 -1.60875 0.5775 -2.4375 0.875 C-5.1326468 1.73262568 -5.1326468 1.73262568 -6 4 C-6.66 4.144375 -7.32 4.28875 -8 4.4375 C-8.66 4.623125 -9.32 4.80875 -10 5 C-10.33 5.99 -10.66 6.98 -11 8 C-13.31470912 8.72870472 -15.6505947 9.39239518 -18 10 C-18.99 10.66 -19.98 11.32 -21 12 C-21.66 11.01 -22.32 10.02 -23 9 C-19.92725154 7.29266954 -16.84034212 5.61274352 -13.75 3.9375 C-12.87730469 3.45216797 -12.00460938 2.96683594 -11.10546875 2.46679688 C-10.26113281 2.01240234 -9.41679687 1.55800781 -8.546875 1.08984375 C-7.77182617 0.66566162 -6.99677734 0.24147949 -6.19824219 -0.19555664 C-3.66134523 -1.12393019 -2.49749524 -0.91790413 0 0 Z " fill="#C7CED0" transform="translate(259,198)"/>
<path d="M0 0 C1.4540625 0.0309375 1.4540625 0.0309375 2.9375 0.0625 C3.2675 1.3825 3.5975 2.7025 3.9375 4.0625 C5.2575 4.3925 6.5775 4.7225 7.9375 5.0625 C7.9375 5.7225 7.9375 6.3825 7.9375 7.0625 C9.9175 7.0625 11.8975 7.0625 13.9375 7.0625 C14.2675 8.3825 14.5975 9.7025 14.9375 11.0625 C10.70427156 10.44204537 7.41459705 8.95726441 3.625 7 C2.55636719 6.45214844 1.48773438 5.90429688 0.38671875 5.33984375 C-0.82564453 4.70755859 -0.82564453 4.70755859 -2.0625 4.0625 C-2.0625 3.4025 -2.0625 2.7425 -2.0625 2.0625 C-2.7225 1.7325 -3.3825 1.4025 -4.0625 1.0625 C-3.0625 0.0625 -3.0625 0.0625 0 0 Z " fill="#B2BDC5" transform="translate(205.0625,313.9375)"/>
<path d="M0 0 C0.33 0.66 0.66 1.32 1 2 C-2.3 3.32 -5.6 4.64 -9 6 C-9 5.34 -9 4.68 -9 4 C-9.721875 4.185625 -10.44375 4.37125 -11.1875 4.5625 C-14.12826973 5.01995307 -16.14103058 4.73516357 -19 4 C-19 3.67 -19 3.34 -19 3 C-16.586238 2.30048937 -14.16989766 1.61516081 -11.75 0.9375 C-11.06808594 0.73833984 -10.38617188 0.53917969 -9.68359375 0.33398438 C-3.12948153 -1.47953211 -3.12948153 -1.47953211 0 0 Z " fill="#AFBEC5" transform="translate(335,307)"/>
<path d="M0 0 C0.99 0.66 1.98 1.32 3 2 C3.1875 5.625 3.1875 5.625 3 9 C0.69 8.67 -1.62 8.34 -4 8 C-4 7.34 -4 6.68 -4 6 C-4.99 5.67 -5.98 5.34 -7 5 C-4.69 3.35 -2.38 1.7 0 0 Z " fill="#CEDADE" transform="translate(380,280)"/>
<path d="M0 0 C11.55 0 23.1 0 35 0 C35 0.33 35 0.66 35 1 C25.1 1.33 15.2 1.66 5 2 C4.34 3.32 3.68 4.64 3 6 C1.5 4.6875 1.5 4.6875 0 3 C0 2.01 0 1.02 0 0 Z " fill="#555C62" transform="translate(536,415)"/>
<path d="M0 0 C2.31 0 4.62 0 7 0 C8.125 3.75 8.125 3.75 7 6 C7.89163577 8.11683841 7.89163577 8.11683841 9 10 C5.05860922 8.33248852 2.2107188 5.77289351 -1 3 C-0.67 2.01 -0.34 1.02 0 0 Z " fill="#D0D9DF" transform="translate(191,305)"/>
<path d="M0 0 C-0.33 3.3 -0.66 6.6 -1 10 C-2.32 9.34 -3.64 8.68 -5 8 C-6.67654729 8.27942455 -8.34608154 8.60828247 -10 9 C-10.66 8.67 -11.32 8.34 -12 8 C-10.37982158 6.66081194 -8.75370657 5.3288031 -7.125 4 C-6.22007812 3.2575 -5.31515625 2.515 -4.3828125 1.75 C-2 0 -2 0 0 0 Z " fill="#DEE1E2" transform="translate(326,150)"/>
<path d="M0 0 C3.08859579 3.18218961 3.49739928 6.67763378 4 11 C3.01 10.67 2.02 10.34 1 10 C0.4375 8.0625 0.4375 8.0625 0 6 C-0.66 5.34 -1.32 4.68 -2 4 C-2 3.34 -2 2.68 -2 2 C-5.96 2 -9.92 2 -14 2 C-9.16052996 -0.41973502 -5.3334178 -0.88585878 0 0 Z " fill="#B8C5C9" transform="translate(450,123)"/>
<path d="M0 0 C2.9375 0.3125 2.9375 0.3125 4.9375 2.3125 C2.64970962 3.34290167 0.35798864 4.36202018 -1.9375 5.375 C-2.91396484 5.81682617 -2.91396484 5.81682617 -3.91015625 6.26757812 C-5.60260541 7.00911513 -7.33118575 7.66689001 -9.0625 8.3125 C-9.7225 7.9825 -10.3825 7.6525 -11.0625 7.3125 C-10.7325 6.3225 -10.4025 5.3325 -10.0625 4.3125 C-8.73453709 3.95837656 -7.40033393 3.62728446 -6.0625 3.3125 C-5.60875 2.796875 -5.155 2.28125 -4.6875 1.75 C-3.0625 0.3125 -3.0625 0.3125 0 0 Z " fill="#C1CCD3" transform="translate(357.0625,322.6875)"/>
<path d="M0 0 C0.763125 0.309375 1.52625 0.61875 2.3125 0.9375 C4.18789677 1.67893593 6.08684652 2.36228217 8 3 C8 3.66 8 4.32 8 5 C6 7 6 7 4 8 C1.64018187 7.06421005 -0.69631264 6.06652192 -3 5 C-2.34 4.67 -1.68 4.34 -1 4 C-0.34786708 1.97536745 -0.34786708 1.97536745 0 0 Z " fill="#C2CBD2" transform="translate(223,321)"/>
<path d="M0 0 C-0.99 0.495 -0.99 0.495 -2 1 C-2 1.66 -2 2.32 -2 3 C-2.99 3.495 -2.99 3.495 -4 4 C-4.33 4.66 -4.66 5.32 -5 6 C-9.08378077 6 -12.12315913 5.19287411 -16 4 C-10.96003362 0.64002241 -6.00290323 -0.29282455 0 0 Z " fill="#D0DCDE" transform="translate(253,9)"/>
<path d="M0 0 C-0.33 0.99 -0.66 1.98 -1 3 C-1 3.66 -1 4.32 -1 5 C-1.99 5 -2.98 5 -4 5 C-4.33 5.66 -4.66 6.32 -5 7 C-5.99 7 -6.98 7 -8 7 C-8 4.69 -8 2.38 -8 0 C-5.13822943 -1.43088528 -3.06624227 -0.59991697 0 0 Z " fill="#D1DBE1" transform="translate(247,306)"/>
<path d="M0 0 C0 0.33 0 0.66 0 1 C-1.98 1.33 -3.96 1.66 -6 2 C-6.0825 2.928125 -6.165 3.85625 -6.25 4.8125 C-7 8 -7 8 -9.0625 9.875 C-10.0215625 10.431875 -10.0215625 10.431875 -11 11 C-12.44230769 4.75 -12.44230769 4.75 -10.5625 1.5625 C-6.8760282 -0.68534866 -4.27426711 -0.28495114 0 0 Z " fill="#CED6D9" transform="translate(314,382)"/>
<path d="M0 0 C1.98 0.66 3.96 1.32 6 2 C2.644661 4.23689267 -0.59630574 5.16735541 -4.4375 6.1875 C-5.44006836 6.47270508 -5.44006836 6.47270508 -6.46289062 6.76367188 C-9.93813861 7.69706355 -12.58608679 8.37080403 -16 7 C-13.22957891 4.22957891 -11.23466195 4.60203894 -7.375 4.375 C-6.18648438 4.30023438 -4.99796875 4.22546875 -3.7734375 4.1484375 C-2.40058594 4.07496094 -2.40058594 4.07496094 -1 4 C-0.67 2.68 -0.34 1.36 0 0 Z " fill="#ABB5BA" transform="translate(339,329)"/>
<path d="M0 0 C-0.928125 0.3403125 -0.928125 0.3403125 -1.875 0.6875 C-4.6219805 2.38416443 -4.86635273 4.05251711 -6 7 C-6.99 7.33 -7.98 7.66 -9 8 C-9.66 7.67 -10.32 7.34 -11 7 C-10.6875 4.625 -10.6875 4.625 -10 2 C-6.3558226 -0.4294516 -4.28758728 -0.16179575 0 0 Z " fill="#C2CDD6" transform="translate(290,265)"/>
<path d="M0 0 C2.64 0.33 5.28 0.66 8 1 C8 2.98 8 4.96 8 7 C5.75 7.25 5.75 7.25 3 7 C0.6875 5 0.6875 5 -1 3 C-0.67 2.01 -0.34 1.02 0 0 Z " fill="#D0D8E1" transform="translate(151,265)"/>
<path d="M0 0 C0.33 0 0.66 0 1 0 C1 2 1 4 1 6 C1.66 6 2.32 6 3 6 C2.34 7.65 1.68 9.3 1 11 C0.01 11 -0.98 11 -2 11 C-2 10.34 -2 9.68 -2 9 C-3.98 9.66 -5.96 10.32 -8 11 C-7.59007812 10.45730469 -7.18015625 9.91460937 -6.7578125 9.35546875 C-6.21898437 8.64003906 -5.68015625 7.92460937 -5.125 7.1875 C-4.59132813 6.47980469 -4.05765625 5.77210938 -3.5078125 5.04296875 C-2.29185219 3.39543703 -1.13583859 1.70375789 0 0 Z " fill="#C9D1D7" transform="translate(404,254)"/>
<path d="M0 0 C0 0.66 0 1.32 0 2 C0.66 2 1.32 2 2 2 C1.34 3.32 0.68 4.64 0 6 C-0.99 5.34 -1.98 4.68 -3 4 C-3.99 4 -4.98 4 -6 4 C-5.67 3.01 -5.34 2.02 -5 1 C-5.94875 1.165 -6.8975 1.33 -7.875 1.5 C-11 2 -11 2 -13 2 C-13 1.34 -13 0.68 -13 0 C-11.58456585 -0.19658808 -10.16755969 -0.38187546 -8.75 -0.5625 C-7.96109375 -0.66691406 -7.1721875 -0.77132813 -6.359375 -0.87890625 C-3.99467126 -1.00027349 -2.2488963 -0.69633257 0 0 Z " fill="#858589" transform="translate(557,396)"/>
<path d="M0 0 C0.99 0.33 1.98 0.66 3 1 C2.67 2.32 2.34 3.64 2 5 C1.01 4.34 0.02 3.68 -1 3 C-2.98 5.97 -4.96 8.94 -7 12 C-7.33 11.34 -7.66 10.68 -8 10 C-8.66 9.67 -9.32 9.34 -10 9 C-8.71142987 7.68445979 -7.41904109 6.37265903 -6.125 5.0625 C-5.04605469 3.96615234 -5.04605469 3.96615234 -3.9453125 2.84765625 C-2 1 -2 1 0 0 Z " fill="#DCE3E5" transform="translate(378,384)"/>
<path d="M0 0 C0 0.66 0 1.32 0 2 C0.99 2 1.98 2 3 2 C3 2.66 3 3.32 3 4 C-0.08888522 6.05925681 -0.70935927 6.2390374 -4.1875 6.125 C-6.0746875 6.063125 -6.0746875 6.063125 -8 6 C-3.38461538 0 -3.38461538 0 0 0 Z " fill="#DEE0DF" transform="translate(80,434)"/>
<path d="M0 0 C2.45764557 2.45764557 2.84284437 3.54257615 3 7 C1.0625 10.3125 1.0625 10.3125 -1 13 C-1.66 12.67 -2.32 12.34 -3 12 C-2.40075776 7.80530429 -1.42500059 3.99000166 0 0 Z " fill="#C9D1D7" transform="translate(424,213)"/>
<path d="M0 0 C0.99 0.33 1.98 0.66 3 1 C4.04449911 4.13349732 3.93423645 4.98968256 3 8 C0.5625 7.1875 0.5625 7.1875 -2 6 C-2.33 5.01 -2.66 4.02 -3 3 C-2.01 2.01 -1.02 1.02 0 0 Z " fill="#DBE1E8" transform="translate(171,282)"/>
<path d="M0 0 C-0.33 0.99 -0.66 1.98 -1 3 C-1.77085937 3.06058594 -2.54171875 3.12117187 -3.3359375 3.18359375 C-4.33882813 3.26738281 -5.34171875 3.35117188 -6.375 3.4375 C-7.87160156 3.55931641 -7.87160156 3.55931641 -9.3984375 3.68359375 C-11.97927613 3.84965626 -11.97927613 3.84965626 -14 5 C-13.67 3.68 -13.34 2.36 -13 1 C-8.59085217 -0.10228696 -4.51617599 -0.07654536 0 0 Z " fill="#C6D7D8" transform="translate(268,6)"/>
<path d="M0 0 C-3.19668988 2.6486859 -6.39486597 4.93992341 -10 7 C-9.67 4.69 -9.34 2.38 -9 0 C-5.52176885 -1.15941038 -3.54104422 -0.70820884 0 0 Z " fill="#BBC6C9" transform="translate(392,306)"/>
<path d="M0 0 C0.99 0 1.98 0 3 0 C3 0.66 3 1.32 3 2 C4.98 1.34 6.96 0.68 9 0 C7.49776416 4.20626034 4.71449966 5.73900021 1 8 C0.67 5.36 0.34 2.72 0 0 Z " fill="#BDC5CA" transform="translate(391,298)"/>
<path d="M0 0 C0.33 0 0.66 0 1 0 C1.1079859 2.43868168 1.18726589 4.87259133 1.25 7.3125 C1.28351563 8.00279297 1.31703125 8.69308594 1.3515625 9.40429688 C1.390625 11.42578125 1.390625 11.42578125 1 15 C-1.015625 16.98046875 -1.015625 16.98046875 -3 18 C-2.69272975 15.18683642 -2.37944848 12.37457481 -2.0625 9.5625 C-1.97548828 8.76005859 -1.88847656 7.95761719 -1.79882812 7.13085938 C-1.11328125 1.11328125 -1.11328125 1.11328125 0 0 Z " fill="#CDD1D5" transform="translate(124,142)"/>
<path d="M0 0 C0.66 0.33 1.32 0.66 2 1 C1.67 2.32 1.34 3.64 1 5 C1.66 5 2.32 5 3 5 C2 8 2 8 -0.4375 9.25 C-3 10 -3 10 -5 9 C-3.50163895 5.88801935 -1.80066242 2.9465385 0 0 Z " fill="#F9FAFD" transform="translate(163,62)"/>
<path d="M0 0 C0.66 0 1.32 0 2 0 C2.33 0.99 2.66 1.98 3 3 C2.01 3 1.02 3 0 3 C0.185625 3.78375 0.37125 4.5675 0.5625 5.375 C1 8 1 8 0 10 C-0.99 9.67 -1.98 9.34 -3 9 C-4.17755913 6.05610218 -4.03348696 5.10046087 -3 2 C-2.01 2 -1.02 2 0 2 C0 1.34 0 0.68 0 0 Z " fill="#F2F5F8" transform="translate(401,170)"/>
<path d="M0 0 C1.485 0.99 1.485 0.99 3 2 C3.99 2 4.98 2 6 2 C5.649375 2.763125 5.29875 3.52625 4.9375 4.3125 C3.67639116 7.04759379 3.67639116 7.04759379 5 10 C4.34 10.66 3.68 11.32 3 12 C2.30062798 10.5682384 1.61587282 9.12932968 0.9375 7.6875 C0.55464844 6.88699219 0.17179688 6.08648437 -0.22265625 5.26171875 C-1 3 -1 3 0 0 Z " fill="#D3D6DB" transform="translate(160,404)"/>
<path d="M0 0 C1.4606285 2.64738916 2 3.89448334 2 7 C-4.625 9 -4.625 9 -8 9 C-7.01 7.02 -6.02 5.04 -5 3 C-4.67 3.99 -4.34 4.98 -4 6 C-2.04783565 4.04783565 -1.15173355 2.46800047 0 0 Z " fill="#F7FBFD" transform="translate(258,385)"/>
<path d="M0 0 C0.66 0.33 1.32 0.66 2 1 C2 2.32 2 3.64 2 5 C3.91666921 7.25065102 3.91666921 7.25065102 6 9 C4.02 9 2.04 9 0 9 C-1.76462683 5.91190305 -2 4.76687864 -2 1 C-1.34 0.67 -0.68 0.34 0 0 Z " fill="#CCD2D7" transform="translate(137,237)"/>
<path d="M0 0 C1.9375 0.3125 1.9375 0.3125 4 1 C4.33 1.99 4.66 2.98 5 4 C3.35 5.65 1.7 7.3 0 9 C-2.1385485 6.8614515 -2.42655063 5.86724686 -3 3 C-1.68 2.67 -0.36 2.34 1 2 C0.67 1.34 0.34 0.68 0 0 Z " fill="#C7CFD4" transform="translate(410,281)"/>
<path d="M0 0 C0.66 0.33 1.32 0.66 2 1 C2 2.32 2 3.64 2 5 C3.4166747 6.7511573 3.4166747 6.7511573 5 8 C3.3125 8.8125 3.3125 8.8125 1 9 C-1.75 6.5625 -1.75 6.5625 -4 4 C-3.34 3.34 -2.68 2.68 -2 2 C-1.67 2.33 -1.34 2.66 -1 3 C-0.67 2.01 -0.34 1.02 0 0 Z " fill="#D2D8DE" transform="translate(396,172)"/>
<path d="M0 0 C1.8125 0.125 1.8125 0.125 4 1 C6.38482838 4.74758745 7.39145737 7.56348311 7 12 C6.34 12 5.68 12 5 12 C4.87625 11.21625 4.7525 10.4325 4.625 9.625 C4.20882007 6.85942178 4.20882007 6.85942178 2 5 C2.33 4.34 2.66 3.68 3 3 C2.01 2.67 1.02 2.34 0 2 C0 1.34 0 0.68 0 0 Z " fill="#AEB7C2" transform="translate(290,266)"/>
<path d="M0 0 C0.99 0.33 1.98 0.66 3 1 C3 1.66 3 2.32 3 3 C3.99 3.33 4.98 3.66 6 4 C6 4.66 6 5.32 6 6 C1.03083364 5.48594831 -3.29026351 4.76615118 -8 3 C-5.10765685 2.17361624 -3.11257569 2 0 2 C0 1.34 0 0.68 0 0 Z " fill="#A3ADB4" transform="translate(246,330)"/>
<path d="M0 0 C1.98 0 3.96 0 6 0 C6 1.32 6 2.64 6 4 C3.69 3.34 1.38 2.68 -1 2 C-0.67 1.34 -0.34 0.68 0 0 Z M-4 2 C-3.01 2.33 -2.02 2.66 -1 3 C-1.33 3.99 -1.66 4.98 -2 6 C-4.475 5.01 -4.475 5.01 -7 4 C-6.01 3.34 -5.02 2.68 -4 2 Z " fill="#F3F7FA" transform="translate(177,234)"/>
<path d="M0 0 C0.7425 0.0825 1.485 0.165 2.25 0.25 C0.40794162 2.79379491 -1.47478134 5.08312509 -3.75 7.25 C-4.74 6.26 -5.73 5.27 -6.75 4.25 C-3.42692308 0.31153846 -3.42692308 0.31153846 0 0 Z " fill="#C6D2D6" transform="translate(355.75,201.75)"/>
<path d="M0 0 C3.53790403 3.69172595 3.59115883 7.09390595 4 12 C2.5 10.6875 2.5 10.6875 1 9 C1 8.01 1 7.02 1 6 C0.01 6.33 -0.98 6.66 -2 7 C-1.125 2.25 -1.125 2.25 0 0 Z " fill="#C2C6CB" transform="translate(572,397)"/>
<path d="M0 0 C0.7528125 -0.00515625 1.505625 -0.0103125 2.28125 -0.015625 C4.7296721 0.27749596 6.37304054 1.03183231 8.5 2.25 C-3.02164009 3.58257403 -3.02164009 3.58257403 -8.5 2.25 C-5.54497399 0.55757601 -3.40004978 -0.02328801 0 0 Z " fill="#A4AEB2" transform="translate(547.5,380.75)"/>
<path d="M0 0 C2.35953094 2.35953094 2.49141413 3.77895617 3 7 C2.01 7 1.02 7 0 7 C-0.66 8.32 -1.32 9.64 -2 11 C-2.66 11 -3.32 11 -4 11 C-3.52269162 9.5410574 -3.04308958 8.08286504 -2.5625 6.625 C-2.29566406 5.81289062 -2.02882813 5.00078125 -1.75390625 4.1640625 C-1 2 -1 2 0 0 Z " fill="#C7D0D6" transform="translate(420,225)"/>
<path d="M0 0 C0.33 0.66 0.66 1.32 1 2 C1.66 2.33 2.32 2.66 3 3 C2.34 3 1.68 3 1 3 C0.87625 3.763125 0.7525 4.52625 0.625 5.3125 C0 8 0 8 -2 11 C-2.66 11 -3.32 11 -4 11 C-3.48964169 6.6109185 -2.47785723 3.66291938 0 0 Z " fill="#DADDE1" transform="translate(144,87)"/>
<path d="M0 0 C1.32 1.65 2.64 3.3 4 5 C3.01 6.98 2.02 8.96 1 11 C0.34 10.34 -0.32 9.68 -1 9 C-0.67 8.67 -0.34 8.34 0 8 C-0.165 6.845 -0.33 5.69 -0.5 4.5 C-0.665 3.345 -0.83 2.19 -1 1 C-0.67 0.67 -0.34 0.34 0 0 Z " fill="#D7DBDE" transform="translate(143,234)"/>
<path d="M0 0 C1.9375 0.375 1.9375 0.375 4 1 C4.33 1.66 4.66 2.32 5 3 C5.99 3.33 6.98 3.66 8 4 C8.33 4.99 8.66 5.98 9 7 C7.02 7 5.04 7 3 7 C2.67 5.35 2.34 3.7 2 2 C1.34 2 0.68 2 0 2 C0 1.34 0 0.68 0 0 Z " fill="#F4FAFB" transform="translate(400,49)"/>
<path d="M0 0 C1.11375 0.598125 2.2275 1.19625 3.375 1.8125 C4.00148437 2.14894531 4.62796875 2.48539062 5.2734375 2.83203125 C7 4 7 4 9 7 C7.02 7.33 5.04 7.66 3 8 C1.92474806 5.34771188 0.90543849 2.71631546 0 0 Z " fill="#C2C9CD" transform="translate(133,384)"/>
<path d="M0 0 C0.99 0.33 1.98 0.66 3 1 C0.36 3.97 -2.28 6.94 -5 10 C-6 7 -6 7 -5.0625 4.8125 C-4.711875 4.214375 -4.36125 3.61625 -4 3 C-3.01 3 -2.02 3 -1 3 C-0.67 2.01 -0.34 1.02 0 0 Z " fill="#B0B9BD" transform="translate(421,274)"/>
<path d="M0 0 C0.33 0.66 0.66 1.32 1 2 C0.26821134 4.07196631 -0.55899003 6.1108552 -1.4375 8.125 C-1.91058594 9.22070312 -2.38367188 10.31640625 -2.87109375 11.4453125 C-3.24363281 12.28835937 -3.61617188 13.13140625 -4 14 C-5.29227198 9.80011607 -4.50255809 7.13203474 -3 3 C-1.375 1.0625 -1.375 1.0625 0 0 Z " fill="#B1B6BC" transform="translate(448,227)"/>
<path d="M0 0 C0 1.32 0 2.64 0 4 C-0.33 3.34 -0.66 2.68 -1 2 C-3.12576782 1.53348793 -3.12576782 1.53348793 -5.5625 1.375 C-6.38878906 1.30023438 -7.21507812 1.22546875 -8.06640625 1.1484375 C-8.70449219 1.09945312 -9.34257812 1.05046875 -10 1 C-7.68309104 -3.63381792 -3.88575585 -1.46795221 0 0 Z " fill="#BBC5CF" transform="translate(404,168)"/>
<path d="M0 0 C0 0.66 0 1.32 0 2 C-0.99 2.495 -0.99 2.495 -2 3 C-2.65213292 5.02463255 -2.65213292 5.02463255 -3 7 C-5.49361571 5.79618552 -7.68143083 4.54571278 -10 3 C-8.70990357 2.49596232 -7.41786211 1.99690074 -6.125 1.5 C-5.04605469 1.08234375 -5.04605469 1.08234375 -3.9453125 0.65625 C-2 0 -2 0 0 0 Z " fill="#B3C0C8" transform="translate(345,302)"/>
<path d="M0 0 C1.4540625 0.61875 1.4540625 0.61875 2.9375 1.25 C3.2675 2.24 3.5975 3.23 3.9375 4.25 C2.25 5.0625 2.25 5.0625 -0.0625 5.25 C-2.8125 2.8125 -2.8125 2.8125 -5.0625 0.25 C-3.0625 -0.75 -3.0625 -0.75 0 0 Z " fill="#C0C9D0" transform="translate(187.0625,300.75)"/>
<path d="M0 0 C2.6875 1.8125 2.6875 1.8125 5 4 C5 4.66 5 5.32 5 6 C2 7 2 7 -1 7 C-1.66 5.02 -2.32 3.04 -3 1 C-2.01 0.67 -1.02 0.34 0 0 Z " fill="#D4D9DE" transform="translate(178,258)"/>
<path d="M0 0 C0.99 0.99 1.98 1.98 3 3 C2.34 4.32 1.68 5.64 1 7 C0.34 7 -0.32 7 -1 7 C-1.33 8.32 -1.66 9.64 -2 11 C-3.13643966 7.59068103 -2.86747764 6.99664544 -1.5625 3.8125 C-1.13130859 2.73935547 -1.13130859 2.73935547 -0.69140625 1.64453125 C-0.46324219 1.10183594 -0.23507813 0.55914062 0 0 Z " fill="#C2CBD3" transform="translate(152,246)"/>
<path d="M0 0 C0 0.66 0 1.32 0 2 C-3.63423209 4.32590854 -6.77088331 4.16265833 -11 4 C-11 3.67 -11 3.34 -11 3 C-9.35 3 -7.7 3 -6 3 C-6 2.01 -6 1.02 -6 0 C-3.50907189 -1.24546405 -2.58919267 -0.7767578 0 0 Z " fill="#B7B9B9" transform="translate(233,436)"/>
<path d="M0 0 C0.66 0.33 1.32 0.66 2 1 C-1.49087093 5.0042343 -3.64951939 6.62671065 -9 7 C-3.51752022 1.21293801 -3.51752022 1.21293801 0 0 Z " fill="#BDC6CA" transform="translate(536,383)"/>
<path d="M0 0 C1.4540625 0.0309375 1.4540625 0.0309375 2.9375 0.0625 C3.5975 2.0425 4.2575 4.0225 4.9375 6.0625 C2.6275 5.4025 0.3175 4.7425 -2.0625 4.0625 C-2.0625 3.4025 -2.0625 2.7425 -2.0625 2.0625 C-2.7225 1.7325 -3.3825 1.4025 -4.0625 1.0625 C-3.0625 0.0625 -3.0625 0.0625 0 0 Z " fill="#A5B1B6" transform="translate(205.0625,313.9375)"/>
<path d="M0 0 C2.475 0.495 2.475 0.495 5 1 C5.33 2.32 5.66 3.64 6 5 C4.68 5 3.36 5 2 5 C1.34 3.35 0.68 1.7 0 0 Z " fill="#C6D0D3" transform="translate(367,314)"/>
<path d="M0 0 C4.875 2.625 4.875 2.625 6 6 C3.03 5.505 3.03 5.505 0 5 C0 4.34 0 3.68 0 3 C-0.99 2.67 -1.98 2.34 -3 2 C-2.01 1.34 -1.02 0.68 0 0 Z " fill="#C6D1D8" transform="translate(376,283)"/>
<path d="M0 0 C0.66 0.33 1.32 0.66 2 1 C1.01 2.32 0.02 3.64 -1 5 C-0.67 5.66 -0.34 6.32 0 7 C-2.64 7 -5.28 7 -8 7 C-5.42215154 4.35247996 -3.08351902 2.05567935 0 0 Z " fill="#C9D3D4" transform="translate(199,30)"/>
<path d="M0 0 C0.99 0.66 1.98 1.32 3 2 C2.34 3.32 1.68 4.64 1 6 C-0.65 6 -2.3 6 -4 6 C-4.33 5.01 -4.66 4.02 -5 3 C-3.35 2.01 -1.7 1.02 0 0 Z " fill="#FCFDFC" transform="translate(184,433)"/>
<path d="M0 0 C0.66666667 2.66666667 1.33333333 5.33333333 2 8 C1.01 8 0.02 8 -1 8 C-1.66 5.69 -2.32 3.38 -3 1 C-2.01 0.67 -1.02 0.34 0 0 Z " fill="#D1D5DC" transform="translate(523,418)"/>
<path d="M0 0 C2.49361571 1.20381448 4.68143083 2.45428722 7 4 C6.67 5.32 6.34 6.64 6 8 C1.2 4.55384615 1.2 4.55384615 0.1875 1.75 C0.125625 1.1725 0.06375 0.595 0 0 Z " fill="#BCC1C7" transform="translate(503,384)"/>
<path d="M0 0 C-1.09068668 3.77545388 -1.9083091 6.47043472 -5 9 C-5.36666667 3.5 -5.36666667 3.5 -3.625 1.125 C-2 0 -2 0 0 0 Z " fill="#BFC2C5" transform="translate(152,229)"/>
<path d="M0 0 C-0.804375 0.28875 -1.60875 0.5775 -2.4375 0.875 C-5.1326468 1.73262568 -5.1326468 1.73262568 -6 4 C-8.48412207 4.82804069 -10.35220307 5 -13 5 C-4.9 -1.75 -4.9 -1.75 0 0 Z " fill="#B9C3C3" transform="translate(259,198)"/>
<path d="M0 0 C2 1 2 1 2 1 Z M-4.875 0.9375 C-3.96492188 0.94652344 -3.05484375 0.95554687 -2.1171875 0.96484375 C-1.41851562 0.97644531 -0.71984375 0.98804687 0 1 C0 1.66 0 2.32 0 3 C-0.86625 2.979375 -1.7325 2.95875 -2.625 2.9375 C-5.85903648 2.99738956 -8.82799897 3.39580933 -12 4 C-12 3.34 -12 2.68 -12 2 C-9.47524538 0.73762269 -7.68799534 0.90143596 -4.875 0.9375 Z " fill="#F4FDF9" transform="translate(446,124)"/>
<path d="M0 0 C1.4391134 0.28359887 2.87625518 0.57721399 4.3125 0.875 C5.11300781 1.03742187 5.91351563 1.19984375 6.73828125 1.3671875 C9 2 9 2 12 4 C8.37 4 4.74 4 1 4 C0.67 2.68 0.34 1.36 0 0 Z " fill="#A9B9B8" transform="translate(333,10)"/>
<path d="M0 0 C0.66 0.33 1.32 0.66 2 1 C0.35 2.98 -1.3 4.96 -3 7 C-4.32 6.67 -5.64 6.34 -7 6 C-4.74259377 3.66475218 -2.7194239 1.81294927 0 0 Z " fill="#ACB5B8" transform="translate(105,385)"/>
<path d="M0 0 C1.37562854 1.28965176 2.70766393 2.62689293 4 4 C4 4.66 4 5.32 4 6 C2.35 6 0.7 6 -1 6 C-1.625 4.125 -1.625 4.125 -2 2 C-1.34 1.34 -0.68 0.68 0 0 Z " fill="#C6CCD1" transform="translate(315,383)"/>
<path d="M0 0 C0.33 0.66 0.66 1.32 1 2 C1.66 2 2.32 2 3 2 C3 2.66 3 3.32 3 4 C2.01 4 1.02 4 0 4 C0.66 5.65 1.32 7.3 2 9 C1.34 9 0.68 9 0 9 C-1.38232443 7.37373596 -2.71937515 5.7074998 -4 4 C-3.67 3.34 -3.34 2.68 -3 2 C-2.01 2.33 -1.02 2.66 0 3 C0 2.01 0 1.02 0 0 Z " fill="#C4CCD3" transform="translate(180,292)"/>
<path d="M0 0 C0.99 0.33 1.98 0.66 3 1 C2.95875 1.78375 2.9175 2.5675 2.875 3.375 C2.71271266 6.16116119 2.71271266 6.16116119 5 8 C2 8 2 8 0.25 6.8125 C-1 5 -1 5 -0.6875 2.3125 C-0.460625 1.549375 -0.23375 0.78625 0 0 Z " fill="#BCC4CC" transform="translate(166,281)"/>
<path d="M0 0 C0.66 0 1.32 0 2 0 C2.33 1.65 2.66 3.3 3 5 C0.34771188 6.07525194 -2.28368454 7.09456151 -5 8 C-5 7.01 -5 6.02 -5 5 C-3.68 5 -2.36 5 -1 5 C-0.67 3.35 -0.34 1.7 0 0 Z " fill="#C0C3C6" transform="translate(278,211)"/>
<path d="M0 0 C2 1.125 2 1.125 4 3 C4.25 6.1875 4.25 6.1875 4 9 C2.68 8.67 1.36 8.34 0 8 C0 5.33333333 0 2.66666667 0 0 Z " fill="#F9FCFD" transform="translate(449,129)"/>
<path d="M0 0 C2.125 0.9375 2.125 0.9375 4 2 C4 2.99 4 3.98 4 5 C2.35 5.33 0.7 5.66 -1 6 C-1.33 4.35 -1.66 2.7 -2 1 C-1.34 0.67 -0.68 0.34 0 0 Z " fill="#CFD8DC" transform="translate(442,106)"/>
<path d="M0 0 C2 3 2 3 1.625 5.1875 C1.41875 5.785625 1.2125 6.38375 1 7 C0.01 7 -0.98 7 -2 7 C-2 6.34 -2 5.68 -2 5 C-2.66 4.67 -3.32 4.34 -4 4 C-2.68 2.68 -1.36 1.36 0 0 Z " fill="#D6DBDF" transform="translate(402,394)"/>
<path d="M0 0 C0.66 0.33 1.32 0.66 2 1 C0.7625 1.6496875 0.7625 1.6496875 -0.5 2.3125 C-1.7375 3.1478125 -1.7375 3.1478125 -3 4 C-3 4.99 -3 5.98 -3 7 C-3.99 7.33 -4.98 7.66 -6 8 C-5.8125 5.6875 -5.8125 5.6875 -5 3 C-2.5625 1.125 -2.5625 1.125 0 0 Z " fill="#C5CBCE" transform="translate(260,383)"/>
<path d="M0 0 C-0.33 0.66 -0.66 1.32 -1 2 C-3.3260857 2.38063221 -5.66055264 2.71269945 -8 3 C-8.99 3.495 -8.99 3.495 -10 4 C-9 1 -9 1 -7.25 -0.25 C-4.47275102 -1.17574966 -2.78428335 -0.77341204 0 0 Z " fill="#BAC4C6" transform="translate(15,382)"/>
<path d="M0 0 C0.144375 0.78375 0.28875 1.5675 0.4375 2.375 C0.87798925 4.96421018 0.87798925 4.96421018 2 7 C-1.36591866 5.55746343 -3.51047079 3.66735273 -6 1 C-4 0 -4 0 0 0 Z " fill="#8B969B" transform="translate(198,308)"/>
<path d="M0 0 C1.65 0.33 3.3 0.66 5 1 C4.34 2.65 3.68 4.3 3 6 C0.525 5.01 0.525 5.01 -2 4 C-1.34 2.68 -0.68 1.36 0 0 Z " fill="#FAFBFB" transform="translate(215,241)"/>
<path d="M0 0 C0.99 0.33 1.98 0.66 3 1 C2.34 3.97 1.68 6.94 1 10 C-1 8.625 -1 8.625 -3 7 C-3 6.34 -3 5.68 -3 5 C-2.01 4.67 -1.02 4.34 0 4 C0 2.68 0 1.36 0 0 Z " fill="#B3BCBE" transform="translate(450,213)"/>
<path d="M0 0 C2.3125 0.1875 2.3125 0.1875 4 1 C3.67 1.99 3.34 2.98 3 4 C0.23735711 4.59732819 -2.16032769 5 -5 5 C-2.75 2.4375 -2.75 2.4375 0 0 Z " fill="#F9FCFA" transform="translate(180,46)"/>
<path d="M0 0 C5.875 3.75 5.875 3.75 7 6 C4.6875 6.3125 4.6875 6.3125 2 6 C0.1875 3.5 0.1875 3.5 -1 1 C-0.67 0.67 -0.34 0.34 0 0 Z " fill="#B9BEC4" transform="translate(406,419)"/>
<path d="M0 0 C0.66 0.33 1.32 0.66 2 1 C1.34 2.32 0.68 3.64 0 5 C-0.66 4.67 -1.32 4.34 -2 4 C-2.33 4.66 -2.66 5.32 -3 6 C-3.99 5.67 -4.98 5.34 -6 5 C-4.00856305 2.01284458 -3.23356015 1.21258505 0 0 Z " fill="#E2E6E9" transform="translate(530,388)"/>
<path d="M0 0 C3.36720387 1.39332574 4.9859524 2.9789286 7 6 C6.01 6.33 5.02 6.66 4 7 C0 2.25 0 2.25 0 0 Z " fill="#B8BDC3" transform="translate(285,385)"/>
<path d="M0 0 C0.33 0 0.66 0 1 0 C1.12375 0.804375 1.2475 1.60875 1.375 2.4375 C1.58125 3.283125 1.7875 4.12875 2 5 C2.66 5.33 3.32 5.66 4 6 C4.625 8.0625 4.625 8.0625 5 10 C4.01 10 3.02 10 2 10 C-0.4294516 6.3558226 -0.16179575 4.28758728 0 0 Z " fill="#C1C6CB" transform="translate(215,362)"/>
<path d="M0 0 C1.98 0.66 3.96 1.32 6 2 C3.14521674 3.90318884 1.58058692 4.4619099 -1.6875 5.125 C-2.49574219 5.29257812 -3.30398438 5.46015625 -4.13671875 5.6328125 C-4.75160156 5.75398438 -5.36648438 5.87515625 -6 6 C-5.67 5.34 -5.34 4.68 -5 4 C-3.68 4 -2.36 4 -1 4 C-0.67 2.68 -0.34 1.36 0 0 Z " fill="#939FA4" transform="translate(339,329)"/>
<path d="M0 0 C2.97 0.495 2.97 0.495 6 1 C5.67 1.99 5.34 2.98 5 4 C3.35 3.67 1.7 3.34 0 3 C0 2.01 0 1.02 0 0 Z M2 3 C2.99 3.99 3.98 4.98 5 6 C3.68 5.67 2.36 5.34 1 5 C1.33 4.34 1.66 3.68 2 3 Z " fill="#BDCAD1" transform="translate(241,305)"/>
<path d="M0 0 C1.98 1.65 3.96 3.3 6 5 C5.67 5.99 5.34 6.98 5 8 C4.01 7.67 3.02 7.34 2 7 C0.8125 3.4375 0.8125 3.4375 0 0 Z " fill="#CED6DC" transform="translate(191,273)"/>
<path d="M0 0 C-0.33 1.32 -0.66 2.64 -1 4 C-2.65 4.33 -4.3 4.66 -6 5 C-6 3.68 -6 2.36 -6 1 C-4 0 -4 0 0 0 Z " fill="#DAE1E5" transform="translate(421,273)"/>
<path d="M0 0 C2.31 0.66 4.62 1.32 7 2 C5.68 3.32 4.36 4.64 3 6 C0 2.25 0 2.25 0 0 Z " fill="#CFCED3" transform="translate(367,425)"/>
<path d="M0 0 C0.33 0 0.66 0 1 0 C1.54466387 4.084979 2 7.8725485 2 12 C-0.25900493 9.74099507 -0.34458029 9.05816925 -0.6875 6 C-0.77386719 5.29875 -0.86023438 4.5975 -0.94921875 3.875 C-1 2 -1 2 0 0 Z " fill="#BEC2C7" transform="translate(470,395)"/>
<path d="M0 0 C1.32 0 2.64 0 4 0 C4 1.32 4 2.64 4 4 C2.68 4.33 1.36 4.66 0 5 C-0.5625 3.0625 -0.5625 3.0625 -1 1 C-0.67 0.67 -0.34 0.34 0 0 Z " fill="#F6F9FB" transform="translate(98,392)"/>
<path d="M0 0 C0.66 0 1.32 0 2 0 C2 0.66 2 1.32 2 2 C2.66 2.33 3.32 2.66 4 3 C-0.455 4.485 -0.455 4.485 -5 6 C-4.67 4.68 -4.34 3.36 -4 2 C-2.68 1.67 -1.36 1.34 0 1 C0 0.67 0 0.34 0 0 Z " fill="#A6B1B8" transform="translate(351,325)"/>
<path d="M0 0 C-5.75 5 -5.75 5 -8 5 C-7.8125 3.125 -7.8125 3.125 -7 1 C-2.66666667 -1.33333333 -2.66666667 -1.33333333 0 0 Z " fill="#C4CAD2" transform="translate(161,241)"/>
<path d="M0 0 C0.59296875 0.21527344 1.1859375 0.43054688 1.796875 0.65234375 C0.51163239 1.51614634 -0.78154919 2.36814744 -2.078125 3.21484375 C-2.79742187 3.69050781 -3.51671875 4.16617188 -4.2578125 4.65625 C-4.89976562 4.98496094 -5.54171875 5.31367187 -6.203125 5.65234375 C-6.863125 5.32234375 -7.523125 4.99234375 -8.203125 4.65234375 C-2.74543269 -0.43323317 -2.74543269 -0.43323317 0 0 Z " fill="#CCDADF" transform="translate(257.203125,81.34765625)"/>
<path d="M0 0 C0.99 1.32 1.98 2.64 3 4 C2.67 4.66 2.34 5.32 2 6 C1.34 5.67 0.68 5.34 0 5 C0 5.66 0 6.32 0 7 C-0.99 6.67 -1.98 6.34 -3 6 C-2 4 -1 2 0 0 Z " fill="#C7CCCF" transform="translate(108,414)"/>
<path d="M0 0 C0.66 0.33 1.32 0.66 2 1 C1.1875 3.9375 1.1875 3.9375 0 7 C-0.99 7.33 -1.98 7.66 -3 8 C-1.125 1.125 -1.125 1.125 0 0 Z " fill="#BEC3C7" transform="translate(247,395)"/>
<path d="M0 0 C0.66 0.33 1.32 0.66 2 1 C1.01 2.485 1.01 2.485 0 4 C0.33 4.99 0.66 5.98 1 7 C0.34 7.66 -0.32 8.32 -1 9 C-1 8.01 -1 7.02 -1 6 C-1.66 6 -2.32 6 -3 6 C-2.42655063 3.13275314 -2.1385485 2.1385485 0 0 Z " fill="#E1E7E9" transform="translate(251,390)"/>
<path d="M0 0 C1.32 0.33 2.64 0.66 4 1 C3.6875 2.875 3.6875 2.875 3 5 C2.01 5.66 1.02 6.32 0 7 C0 4.69 0 2.38 0 0 Z " fill="#D0D7DB" transform="translate(152,384)"/>
<path d="M0 0 C1.98 0.66 3.96 1.32 6 2 C5.01 3.32 4.02 4.64 3 6 C2.34 5.67 1.68 5.34 1 5 C0.375 2.4375 0.375 2.4375 0 0 Z " fill="#BCC8CB" transform="translate(223,297)"/>
<path d="M0 0 C0 0.66 0 1.32 0 2 C-1.98 2.66 -3.96 3.32 -6 4 C-6.33 3.01 -6.66 2.02 -7 1 C-3.375 -1.125 -3.375 -1.125 0 0 Z " fill="#D3D6D8" transform="translate(198,254)"/>
<path d="M0 0 C1.0625 1.8125 1.0625 1.8125 2 4 C1.67 4.99 1.34 5.98 1 7 C-0.32 6.34 -1.64 5.68 -3 5 C-2.01 3.35 -1.02 1.7 0 0 Z " fill="#C9D2D9" transform="translate(408,248)"/>
<path d="M0 0 C0.66 0 1.32 0 2 0 C2.80967438 2.91482778 3.21845993 4.46113217 2.0625 7.3125 C1.5365625 8.1478125 1.5365625 8.1478125 1 9 C0.63877119 7.68942607 0.28619689 6.37646376 -0.0625 5.0625 C-0.35833984 3.96615234 -0.35833984 3.96615234 -0.66015625 2.84765625 C-0.77230469 2.23792969 -0.88445312 1.62820312 -1 1 C-0.67 0.67 -0.34 0.34 0 0 Z " fill="#C3C8CF" transform="translate(129,220)"/>
<path d="M0 0 C0.99 0 1.98 0 3 0 C3.33 1.98 3.66 3.96 4 6 C2.02 5.01 0.04 4.02 -2 3 C-1.34 2.01 -0.68 1.02 0 0 Z " fill="#F3F9FB" transform="translate(356,203)"/>
<path d="M0 0 C2.97 0.495 2.97 0.495 6 1 C4.75 2.5625 4.75 2.5625 3 4 C0.8125 3.6875 0.8125 3.6875 -1 3 C-0.67 2.01 -0.34 1.02 0 0 Z " fill="#D5D8D8" transform="translate(403,434)"/>
<path d="M0 0 C0.66 0 1.32 0 2 0 C2.99 1.98 3.98 3.96 5 6 C2 6 2 6 0.3125 4.5 C-0.120625 4.005 -0.55375 3.51 -1 3 C-0.67 2.01 -0.34 1.02 0 0 Z " fill="#DADCE1" transform="translate(97,425)"/>
<path d="M0 0 C2.97 0.495 2.97 0.495 6 1 C6 1.66 6 2.32 6 3 C5.34 3 4.68 3 4 3 C3.67 3.99 3.34 4.98 3 6 C0 2.25 0 2.25 0 0 Z " fill="#D2D4D8" transform="translate(168,425)"/>
<path d="M0 0 C1.32 0.66 2.64 1.32 4 2 C3.67 2.66 3.34 3.32 3 4 C-0.0625 4.625 -0.0625 4.625 -3 5 C-2.01 3.35 -1.02 1.7 0 0 Z " fill="#D2D9DD" transform="translate(347,383)"/>
<path d="M0 0 C2.875 -0.1875 2.875 -0.1875 6 0 C6.66 0.99 7.32 1.98 8 3 C5.36 2.67 2.72 2.34 0 2 C0 1.34 0 0.68 0 0 Z " fill="#D7E0E7" transform="translate(239,330)"/>
<path d="M0 0 C-0.33 0.66 -0.66 1.32 -1 2 C-3.64860427 2.59355614 -6.29197322 2.74209269 -9 3 C-8.67 2.01 -8.34 1.02 -8 0 C-5.13822943 -1.43088528 -3.06624227 -0.59991697 0 0 Z " fill="#D1DDE4" transform="translate(355,302)"/>
<path d="M0 0 C0.66 0.99 1.32 1.98 2 3 C2.66 3.66 3.32 4.32 4 5 C3.01 5.99 2.02 6.98 1 8 C1 7.34 1 6.68 1 6 C0.01 5.67 -0.98 5.34 -2 5 C-1.34 3.35 -0.68 1.7 0 0 Z " fill="#CBD2D5" transform="translate(426,261)"/>
<path d="M0 0 C1.9375 0.8125 1.9375 0.8125 4 2 C4.33 2.99 4.66 3.98 5 5 C4.67 5.66 4.34 6.32 4 7 C1 6 1 6 -1 4 C-0.625 1.875 -0.625 1.875 0 0 Z " fill="#F3F5F8" transform="translate(139,238)"/>
<path d="M0 0 C0.99 0.33 1.98 0.66 3 1 C2.01 1.495 2.01 1.495 1 2 C1 2.66 1 3.32 1 4 C-0.98 4.99 -0.98 4.99 -3 6 C-3.33 5.01 -3.66 4.02 -4 3 C-2.1875 1.4375 -2.1875 1.4375 0 0 Z " fill="#CACCCF" transform="translate(367,147)"/>
<path d="M0 0 C2 1 4 2 6 3 C5.67 3.66 5.34 4.32 5 5 C3.35 4.67 1.7 4.34 0 4 C0 2.68 0 1.36 0 0 Z " fill="#979EA3" transform="translate(563,420)"/>
<path d="M0 0 C2.875 -0.125 2.875 -0.125 6 0 C6.66 0.66 7.32 1.32 8 2 C6.02 2.66 4.04 3.32 2 4 C1.34 2.68 0.68 1.36 0 0 Z " fill="#C9CBCE" transform="translate(111,396)"/>
<path d="M0 0 C0.66 0.66 1.32 1.32 2 2 C0.68 3.32 -0.64 4.64 -2 6 C-2.66 5.67 -3.32 5.34 -4 5 C-3 2 -3 2 0 0 Z " fill="#F4F9FB" transform="translate(477,386)"/>
<path d="M0 0 C-1 3 -1 3 -3.375 4.75 C-6 6 -6 6 -9 5 C-7.87926138 4.16094435 -6.75325453 3.32892169 -5.625 2.5 C-4.99851562 2.0359375 -4.37203125 1.571875 -3.7265625 1.09375 C-2 0 -2 0 0 0 Z " fill="#ACB2B6" transform="translate(55,383)"/>
<path d="M0 0 C0.33 0.99 0.66 1.98 1 3 C-0.98 3.33 -2.96 3.66 -5 4 C-5.33 3.34 -5.66 2.68 -6 2 C-4.02 1.34 -2.04 0.68 0 0 Z " fill="#D3DCE1" transform="translate(214,315)"/>
<path d="M0 0 C2.64 0.33 5.28 0.66 8 1 C6.68 1.99 5.36 2.98 4 4 C2.68 3.34 1.36 2.68 0 2 C0 1.34 0 0.68 0 0 Z " fill="#B5C3C9" transform="translate(254,309)"/>
<path d="M0 0 C1.11375 0.3403125 1.11375 0.3403125 2.25 0.6875 C0.765 2.1725 0.765 2.1725 -0.75 3.6875 C-0.75 3.0275 -0.75 2.3675 -0.75 1.6875 C-2.73 2.0175 -4.71 2.3475 -6.75 2.6875 C-4.29511132 0.41445492 -3.41240272 -0.38777304 0 0 Z " fill="#ADB9C1" transform="translate(351.75,299.3125)"/>
<path d="M0 0 C0.66 0.33 1.32 0.66 2 1 C1.34 1.66 0.68 2.32 0 3 C-0.69748583 4.31747324 -1.36959957 5.64914193 -2 7 C-2.99 6.34 -3.98 5.68 -5 5 C-3.35 3.35 -1.7 1.7 0 0 Z " fill="#9FAAB1" transform="translate(386,274)"/>
<path d="M0 0 C0.66 0.33 1.32 0.66 2 1 C1.67 2.65 1.34 4.3 1 6 C0.01 5.34 -0.98 4.68 -2 4 C-1.34 2.68 -0.68 1.36 0 0 Z " fill="#DFE6EA" transform="translate(420,231)"/>
<path d="M0 0 C-0.33 0.99 -0.66 1.98 -1 3 C-3.375 3.625 -3.375 3.625 -6 4 C-6.66 3.34 -7.32 2.68 -8 2 C-2.25 0 -2.25 0 0 0 Z " fill="#BFCACC" transform="translate(198,226)"/>
<path d="M0 0 C0.125 2.875 0.125 2.875 0 6 C-0.66 6.66 -1.32 7.32 -2 8 C-3 3.25 -3 3.25 -3 1 C-1 0 -1 0 0 0 Z " fill="#F9FCFD" transform="translate(148,161)"/>
<path d="M0 0 C0.99 0 1.98 0 3 0 C3 1.32 3 2.64 3 4 C1.35 4.66 -0.3 5.32 -2 6 C-1.34 4.02 -0.68 2.04 0 0 Z " fill="#CDD2D6" transform="translate(137,100)"/>
<path d="M0 0 C1.32 0.33 2.64 0.66 4 1 C3.01 2.32 2.02 3.64 1 5 C0.01 4.67 -0.98 4.34 -2 4 C-1.34 2.68 -0.68 1.36 0 0 Z " fill="#E1E5E8" transform="translate(154,72)"/>
<path d="M0 0 C2 1 2 1 2 1 Z " fill="#0B131C" transform="translate(272,420)"/>
<path d="M0 0 C2 1 2 1 2 1 Z " fill="#0A111A" transform="translate(271,418)"/>
<path d="" fill="#121E25" transform="translate(0,0)"/>
<path d="M0 0 C2 1 2 1 2 1 Z " fill="#121A21" transform="translate(231,375)"/>
<path d="M0 0 C2 1 2 1 2 1 Z " fill="#1A2129" transform="translate(228,243)"/>
<path d="" fill="#0F1618" transform="translate(0,0)"/>
<path d="" fill="#191E21" transform="translate(0,0)"/>
<path d="" fill="#1F2227" transform="translate(0,0)"/>
<path d="" fill="#141C1E" transform="translate(0,0)"/>
<path d="" fill="#20272D" transform="translate(0,0)"/>
<path d="" fill="#0D161C" transform="translate(0,0)"/>
<path d="" fill="#0F1E25" transform="translate(0,0)"/>
<path d="" fill="#121A1D" transform="translate(0,0)"/>
<path d="" fill="#091018" transform="translate(0,0)"/>
<path d="" fill="#0F1318" transform="translate(0,0)"/>
<path d="" fill="#0A1318" transform="translate(0,0)"/>
<path d="" fill="#101922" transform="translate(0,0)"/>
<path d="" fill="#19212C" transform="translate(0,0)"/>
<path d="" fill="#071013" transform="translate(0,0)"/>
<path d="" fill="#141D22" transform="translate(0,0)"/>
<path d="" fill="#0B1118" transform="translate(0,0)"/>
<path d="" fill="#111723" transform="translate(0,0)"/>
<path d="" fill="#0A1218" transform="translate(0,0)"/>
<path d="" fill="#151E27" transform="translate(0,0)"/>
<path d="" fill="#111820" transform="translate(0,0)"/>
<path d="" fill="#101920" transform="translate(0,0)"/>
<path d="" fill="#111820" transform="translate(0,0)"/>
<path d="" fill="#171E26" transform="translate(0,0)"/>
<path d="" fill="#0B1118" transform="translate(0,0)"/>
<path d="" fill="#121A27" transform="translate(0,0)"/>
<path d="" fill="#101A24" transform="translate(0,0)"/>
<path d="" fill="#121B24" transform="translate(0,0)"/>
<path d="" fill="#111A23" transform="translate(0,0)"/>
<path d="" fill="#0F1922" transform="translate(0,0)"/>
<path d="" fill="#101922" transform="translate(0,0)"/>
<path d="" fill="#101922" transform="translate(0,0)"/>
<path d="" fill="#131C25" transform="translate(0,0)"/>
<path d="" fill="#0D1723" transform="translate(0,0)"/>
<path d="" fill="#0C161C" transform="translate(0,0)"/>
<path d="" fill="#081018" transform="translate(0,0)"/>
<path d="" fill="#0C141C" transform="translate(0,0)"/>
<path d="" fill="#0C141C" transform="translate(0,0)"/>
<path d="" fill="#0B141C" transform="translate(0,0)"/>
<path d="" fill="#121A25" transform="translate(0,0)"/>
<path d="" fill="#050910" transform="translate(0,0)"/>
<path d="" fill="#081018" transform="translate(0,0)"/>
<path d="" fill="#0D1720" transform="translate(0,0)"/>
<path d="" fill="#081018" transform="translate(0,0)"/>
<path d="" fill="#0D1520" transform="translate(0,0)"/>
<path d="" fill="#0C141C" transform="translate(0,0)"/>
<path d="" fill="#0B121C" transform="translate(0,0)"/>
<path d="" fill="#0E151C" transform="translate(0,0)"/>
<path d="" fill="#0E151C" transform="translate(0,0)"/>
<path d="" fill="#181B20" transform="translate(0,0)"/>
<path d="" fill="#15151F" transform="translate(0,0)"/>
<path d="" fill="#101720" transform="translate(0,0)"/>
<path d="" fill="#101622" transform="translate(0,0)"/>
<path d="" fill="#12121A" transform="translate(0,0)"/>
<path d="" fill="#1B212F" transform="translate(0,0)"/>
<path d="" fill="#182126" transform="translate(0,0)"/>
<path d="" fill="#141B23" transform="translate(0,0)"/>
<path d="" fill="#00010D" transform="translate(0,0)"/>
<path d="" fill="#1B1F28" transform="translate(0,0)"/>
<path d="" fill="#182126" transform="translate(0,0)"/>
<path d="" fill="#17262D" transform="translate(0,0)"/>
<path d="" fill="#091619" transform="translate(0,0)"/>
<path d="" fill="#101922" transform="translate(0,0)"/>
<path d="" fill="#111A23" transform="translate(0,0)"/>
<path d="" fill="#161D26" transform="translate(0,0)"/>
<path d="" fill="#151C22" transform="translate(0,0)"/>
<path d="" fill="#1F2D36" transform="translate(0,0)"/>
<path d="" fill="#0B141C" transform="translate(0,0)"/>
<path d="" fill="#121D23" transform="translate(0,0)"/>
<path d="" fill="#131E24" transform="translate(0,0)"/>
<path d="" fill="#18222B" transform="translate(0,0)"/>
<path d="" fill="#1C262F" transform="translate(0,0)"/>
<path d="" fill="#162127" transform="translate(0,0)"/>
<path d="" fill="#1A252C" transform="translate(0,0)"/>
<path d="" fill="#20272D" transform="translate(0,0)"/>
<path d="" fill="#0B161C" transform="translate(0,0)"/>
<path d="" fill="#111A23" transform="translate(0,0)"/>
<path d="" fill="#1E252D" transform="translate(0,0)"/>
<path d="" fill="#1D2A35" transform="translate(0,0)"/>
<path d="" fill="#101920" transform="translate(0,0)"/>
<path d="" fill="#161D26" transform="translate(0,0)"/>
<path d="" fill="#1A2028" transform="translate(0,0)"/>
<path d="" fill="#0C1218" transform="translate(0,0)"/>
<path d="" fill="#0C1218" transform="translate(0,0)"/>
<path d="" fill="#091013" transform="translate(0,0)"/>
<path d="" fill="#0F1A23" transform="translate(0,0)"/>
<path d="" fill="#203342" transform="translate(0,0)"/>
<path d="" fill="#1E252C" transform="translate(0,0)"/>
<path d="" fill="#273540" transform="translate(0,0)"/>
<path d="" fill="#122029" transform="translate(0,0)"/>
<path d="" fill="#1D2A34" transform="translate(0,0)"/>
</svg>
